<svg xmlns="http://www.w3.org/2000/svg" width="18.698" height="18.706" viewBox="0 0 18.698 18.706">
  <g id="Icon_ionic-ios-close-circle-outline" data-name="Icon ionic-ios-close-circle-outline" transform="translate(-12.236 -12.227)">
    <path id="Path_1311" data-name="Path 1311" d="M30.506,27.872l-6.149-6.149,6.149-6.149a1.865,1.865,0,0,0-2.637-2.637L21.72,19.086l-6.149-6.149a1.865,1.865,0,0,0-2.637,2.637l6.149,6.149-6.149,6.149a1.8,1.8,0,0,0,0,2.637,1.852,1.852,0,0,0,2.637,0L21.72,24.36l6.149,6.149a1.873,1.873,0,0,0,2.637,0A1.852,1.852,0,0,0,30.506,27.872Z" transform="translate(-0.123 -0.128)" fill="#fff"/>
  </g>
</svg>
