<svg xmlns="http://www.w3.org/2000/svg" width="36.731" height="43.871" viewBox="0 0 36.731 43.871">
  <g id="Group_5789" data-name="Group 5789" transform="translate(-396.262 -223.945)">
    <path id="Path_1325" data-name="Path 1325" d="M402.1,255.84c2.247-5.079,4.779-10.829-.157-16.567a1.682,1.682,0,0,0-.129-.179c-3.657-4.134-1.83-8.264.286-13.046.3-.689.611-1.392.907-2.1h-3.753c-.1.237-.2.467-.308.708-2.246,5.079-4.779,10.829.156,16.567a1.806,1.806,0,0,0,.129.179c3.657,4.134,1.831,8.264-.286,13.046-1.829,4.135-3.85,8.716-1.875,13.372H401c-2.512-3.781-.834-7.607,1.1-11.976" transform="translate(0 0)" fill="#fff"/>
    <path id="Path_1326" data-name="Path 1326" d="M420.514,255.84c2.247-5.079,4.779-10.829-.156-16.567a1.8,1.8,0,0,0-.129-.179c-3.657-4.134-1.83-8.264.286-13.046.3-.689.611-1.392.908-2.1h-3.754c-.1.237-.2.467-.308.708-2.247,5.079-4.78,10.829.157,16.567a1.793,1.793,0,0,0,.129.179c3.657,4.134,1.831,8.264-.286,13.046-1.829,4.135-3.85,8.716-1.875,13.372h3.93c-2.512-3.781-.834-7.607,1.1-11.976" transform="translate(-4.309 0)" fill="#fff"/>
    <path id="Path_1327" data-name="Path 1327" d="M435.772,224.653c-2.247,5.079-4.779,10.829.157,16.567a1.669,1.669,0,0,0,.129.179c3.657,4.134,1.83,8.264-.286,13.046-1.829,4.135-3.85,8.716-1.875,13.372h3.93c-2.512-3.781-.834-7.607,1.1-11.976,2.247-5.079,4.779-10.829-.156-16.567a1.828,1.828,0,0,0-.129-.179c-3.657-4.134-1.831-8.264.286-13.046.3-.689.612-1.392.907-2.1H436.08c-.1.237-.2.467-.308.708" transform="translate(-8.619 0)" fill="#fff"/>
  </g>
</svg>
