<svg xmlns="http://www.w3.org/2000/svg" width="128.102" height="122.899" viewBox="0 0 128.102 122.899">
  <g id="Logo_-_DOT" data-name="Logo - DOT" transform="translate(0 0.079)">
    <path id="Vector" d="M1.071,7.6H2.1c1.508,0,2.064-.557,2.064-2.546V3.342C4.167,1.631,3.651.995,2.5.995H1.071ZM0,0H2.619A2.228,2.228,0,0,1,4.881,1.313a8.5,8.5,0,0,1,.4,2.705A6.965,6.965,0,0,1,4.762,7.44c-.476.716-1.31,1.114-2.818,1.114H0Z" transform="translate(0 99.666)" fill="#fff"/>
    <path id="Vector-2" data-name="Vector" d="M0,8.514V0H4.365V.955H1.071V3.7H4.127v.955H1.071V7.6H4.445v.915Z" transform="translate(7.183 99.666)" fill="#fff"/>
    <path id="Vector-3" data-name="Vector" d="M1.071,3.819H2.262A1.352,1.352,0,0,0,3.77,2.387C3.77,1.074,2.818.955,2.579.955H1.071ZM0,8.514V0H2.5A2.136,2.136,0,0,1,4.881,2.427,2.2,2.2,0,0,1,2.5,4.774H1.071v3.74Z" transform="translate(13.215 99.666)" fill="#fff"/>
    <path id="Vector-4" data-name="Vector" d="M3.333.995,1.984,5.57h2.7ZM2.7,0H4.088L6.865,8.514H5.675l-.6-2.029H1.706L1.071,8.514H0Z" transform="translate(18.255 99.666)" fill="#fff"/>
    <path id="Vector-5" data-name="Vector" d="M1.071,3.621H2.7c.794,0,1.151-.676,1.151-1.432A1.186,1.186,0,0,0,2.7.875H1.071Zm0,.955V8.514H0V0H2.937A1.911,1.911,0,0,1,4.961,2.109a1.862,1.862,0,0,1-1.548,1.95V4.1c.992.159,1.349.477,1.389,2.188a9.7,9.7,0,0,0,.317,2.228H3.968a9.055,9.055,0,0,1-.317-2.825,1.106,1.106,0,0,0-1.27-1.074H1.071Z" transform="translate(26.192 99.705)" fill="#fff"/>
    <path id="Vector-6" data-name="Vector" d="M5.556,0V.955H3.294V8.514H2.222V.955H0V0Z" transform="translate(31.986 99.666)" fill="#fff"/>
    <path id="Vector-7" data-name="Vector" d="M1.032,8.514H0V0H1.746L3.889,7.162h.04L6.111,0H7.9V8.514H6.786V.955L4.4,8.514H3.373L1.032.955Z" transform="translate(38.652 99.666)" fill="#fff"/>
    <path id="Vector-8" data-name="Vector" d="M0,8.514V0H4.365V.955H1.071V3.7H4.127v.955H1.071V7.6H4.445v.915Z" transform="translate(48.455 99.666)" fill="#fff"/>
    <path id="Vector-9" data-name="Vector" d="M5.834,0V8.514H4.326L.992,1.154H.952v7.36H0V0H1.508L4.842,7.321V0Z" transform="translate(54.407 99.666)" fill="#fff"/>
    <path id="Vector-10" data-name="Vector" d="M5.556,0V.955H3.333V8.514H2.262V.955H0V0Z" transform="translate(61.392 99.666)" fill="#fff"/>
    <path id="Vector-11" data-name="Vector" d="M4.207,5.61V2.745c0-1.79-1.23-1.83-1.587-1.83s-1.548.04-1.548,1.83V5.61c0,1.87.556,2.347,1.548,2.347C3.691,7.957,4.207,7.48,4.207,5.61ZM0,5.57V2.785A2.462,2.462,0,0,1,2.659,0,2.462,2.462,0,0,1,5.318,2.785V5.57c0,2.347-.873,3.3-2.659,3.3S0,7.918,0,5.57Z" transform="translate(70.678 99.506)" fill="#fff"/>
    <path id="Vector-12" data-name="Vector" d="M0,8.514V0H4.207V.955H1.071V3.7H4.048v.955H1.071V8.514Z" transform="translate(77.821 99.666)" fill="#fff"/>
    <path id="Vector-13" data-name="Vector" d="M3.849,2.546a2.286,2.286,0,0,0-.238-1.233A1.366,1.366,0,0,0,2.659.955c-.913,0-1.27.557-1.27.676-.04.08-.238.318-.238,1.751V5.65C1.151,7.719,1.825,8,2.659,8c.317,0,1.349-.119,1.349-1.79H5.119C5.159,8.912,3.254,8.912,2.7,8.912,1.627,8.912,0,8.833,0,5.53V3.1C0,.676,1.071,0,2.738,0,4.445,0,5.08.875,4.961,2.507H3.849Z" transform="translate(85.639 99.467)" fill="#fff"/>
    <path id="Vector-14" data-name="Vector" d="M0,0H1.071V5.451c0,1.87.556,2.347,1.587,2.347s1.587-.477,1.587-2.347V0H5.318V5.411c0,2.347-.873,3.3-2.659,3.3S0,7.8,0,5.411V0Z" transform="translate(92.227 99.666)" fill="#fff"/>
    <path id="Vector-15" data-name="Vector" d="M0,8.514V0H1.111V7.6h3.1v.915Z" transform="translate(99.45 99.666)" fill="#fff"/>
    <path id="Vector-16" data-name="Vector" d="M5.556,0V.955H3.294V8.514H2.222V.955H0V0Z" transform="translate(103.22 99.666)" fill="#fff"/>
    <path id="Vector-17" data-name="Vector" d="M0,0H1.071V5.451c0,1.87.556,2.347,1.587,2.347s1.587-.477,1.587-2.347V0H5.318V5.411c0,2.347-.873,3.3-2.659,3.3S0,7.8,0,5.411V0Z" transform="translate(109.846 99.666)" fill="#fff"/>
    <path id="Vector-18" data-name="Vector" d="M1.071,3.621H2.7c.794,0,1.151-.676,1.151-1.432A1.186,1.186,0,0,0,2.7.875H1.071Zm0,.955V8.514H0V0H2.937A1.911,1.911,0,0,1,4.961,2.109a1.862,1.862,0,0,1-1.548,1.95V4.1c.992.159,1.349.477,1.389,2.188a9.7,9.7,0,0,0,.317,2.228H4.008a9.055,9.055,0,0,1-.317-2.825,1.106,1.106,0,0,0-1.27-1.074H1.071Z" transform="translate(117.069 99.705)" fill="#fff"/>
    <path id="Vector-19" data-name="Vector" d="M0,8.514V0H4.365V.955H1.071V3.7H4.127v.955H1.071V7.6H4.445v.915Z" transform="translate(123.617 99.666)" fill="#fff"/>
    <path id="Vector-20" data-name="Vector" d="M3.333.995,1.984,5.53h2.7ZM2.7,0H4.088L6.865,8.514H5.675l-.6-2.029H1.706L1.071,8.514H0Z" transform="translate(28.97 114.107)" fill="#fff"/>
    <path id="Vector-21" data-name="Vector" d="M5.834,0V8.514H4.326L.992,1.114H.952v7.4H0V0H1.548L4.842,7.281h.04V0Z" transform="translate(36.986 114.107)" fill="#fff"/>
    <path id="Vector-22" data-name="Vector" d="M1.071,7.559H2.1c1.508,0,2.064-.557,2.064-2.546V3.3C4.167,1.591,3.651.955,2.5.955H1.071ZM0,0H2.619A2.228,2.228,0,0,1,4.881,1.313a8.5,8.5,0,0,1,.4,2.705A6.965,6.965,0,0,1,4.762,7.44c-.476.716-1.31,1.114-2.818,1.114H0V0Z" transform="translate(44.804 114.107)" fill="#fff"/>
    <path id="Vector-23" data-name="Vector" d="M5.556,0V.915H3.294v7.6H2.222V.915H0V0Z" transform="translate(53.812 114.107)" fill="#fff"/>
    <path id="Vector-24" data-name="Vector" d="M4.246,5.65V2.785c0-1.79-1.23-1.83-1.587-1.83s-1.548.04-1.548,1.83V5.65C1.111,7.52,1.667,8,2.659,8,3.691,7.957,4.246,7.52,4.246,5.65ZM0,5.57V2.785A2.462,2.462,0,0,1,2.659,0,2.462,2.462,0,0,1,5.318,2.785V5.57c0,2.347-.873,3.3-2.659,3.3S0,7.957,0,5.57Z" transform="translate(60.439 113.908)" fill="#fff"/>
    <path id="Vector-25" data-name="Vector" d="M0,0H1.071V5.451c0,1.87.556,2.347,1.587,2.347s1.587-.477,1.587-2.347V0H5.318V5.411c0,2.347-.873,3.3-2.659,3.3S0,7.8,0,5.411V0Z" transform="translate(67.623 114.107)" fill="#fff"/>
    <path id="Vector-26" data-name="Vector" d="M1.071,3.66H2.7c.794,0,1.151-.676,1.151-1.432A1.186,1.186,0,0,0,2.7.915H1.071Zm0,.915V8.514H0V0H2.937A1.911,1.911,0,0,1,4.961,2.109a1.862,1.862,0,0,1-1.548,1.95V4.1c.992.159,1.349.477,1.389,2.188A12.175,12.175,0,0,0,5.08,8.514H3.968a9.055,9.055,0,0,1-.317-2.825,1.106,1.106,0,0,0-1.27-1.074H1.071Z" transform="translate(74.845 114.107)" fill="#fff"/>
    <path id="Vector-27" data-name="Vector" d="M0,0H1.071V8.514H0Z" transform="translate(81.551 114.107)" fill="#fff"/>
    <path id="Vector-28" data-name="Vector" d="M1.151,6.207v.239A1.335,1.335,0,0,0,2.58,7.957c.873,0,1.508-.358,1.508-1.393,0-1.91-3.81-1.671-3.81-4.257A2.245,2.245,0,0,1,2.778,0,2.091,2.091,0,0,1,5.119,2.507H3.968c0-.915-.278-1.552-1.31-1.552a1.193,1.193,0,0,0-1.31,1.273c0,1.87,3.81,1.591,3.81,4.3,0,1.79-1.23,2.387-2.659,2.387C0,8.952,0,7,0,6.207Z" transform="translate(84.369 113.869)" fill="#fff"/>
    <path id="Vector-29" data-name="Vector" d="M1.032,8.514H0V0H1.746L3.889,7.122h.04L6.072,0H7.9V8.514H6.786V.915L4.4,8.514H3.373L1.032.915Z" transform="translate(91.235 114.107)" fill="#fff"/>
    <path id="Vector-30" data-name="Vector" d="M4.842.676a.66.66,0,0,1-.2.477.669.669,0,0,1-.952,0,.66.66,0,0,1-.2-.477A.66.66,0,0,1,3.691.2a.669.669,0,0,1,.952,0A.66.66,0,0,1,4.842.676Zm-2.262,0a.66.66,0,0,1-.2.477.669.669,0,0,1-.952,0,.66.66,0,0,1-.2-.477A.66.66,0,0,1,1.429.2a.669.669,0,0,1,.952,0A.66.66,0,0,1,2.579.676Zm2.3,7.559c0,.2.079.279.238.279h.675V9.549H5a1.2,1.2,0,0,1-.833-.318,1.491,1.491,0,0,1-.317-.995L3.81,3.859c-.238.119-.516.279-.833.438a7.47,7.47,0,0,0-.913.637,3.826,3.826,0,0,0-.714.875,2.179,2.179,0,0,0-.317,1.154A1.368,1.368,0,0,0,1.587,8.2a3.408,3.408,0,0,0,1.706.438L3.175,9.708A4.293,4.293,0,0,1,1.548,9.35,2.55,2.55,0,0,1,.6,8.673a1.709,1.709,0,0,1-.437-.836A2.082,2.082,0,0,1,0,7a3.209,3.209,0,0,1,.6-1.91A5.453,5.453,0,0,1,1.945,3.74a7.878,7.878,0,0,1,1.587-.875c.556-.239.992-.358,1.31-.477V8.236Z" transform="translate(0 81.602)" fill="#fff"/>
    <path id="Vector-31" data-name="Vector" d="M3.413.995H.714A.8.8,0,0,1,.2.836.55.55,0,0,1,0,.477.406.406,0,0,1,.2.159.731.731,0,0,1,.714,0h2.7Z" transform="translate(5.04 90.156)" fill="#fff"/>
    <path id="Vector-32" data-name="Vector" d="M.675,6.843A.632.632,0,0,1,.2,6.684.55.55,0,0,1,0,6.326a.406.406,0,0,1,.2-.318.632.632,0,0,1,.476-.159H5.913A4.584,4.584,0,0,1,5.6,4.814a14.975,14.975,0,0,1-.159-1.671A3.9,3.9,0,0,0,5.2,1.989a1.99,1.99,0,0,0-.437-.637,1.465,1.465,0,0,0-.556-.279,3,3,0,0,0-.6-.04,2.556,2.556,0,0,0-1.429.477L1.548.676A2.831,2.831,0,0,1,2.46.2,2.885,2.885,0,0,1,3.651,0,2.6,2.6,0,0,1,5.675.756a3.718,3.718,0,0,1,.833,2.308c.079.915.159,1.552.238,1.95s.238.637.516.716l.556.159L7.7,6.843Z" transform="translate(7.778 84.307)" fill="#fff"/>
    <path id="Vector-33" data-name="Vector" d="M0,0V10.464H1.945V9.429H1.032V0Z" transform="translate(16.945 80.687)" fill="#fff"/>
    <path id="Vector-34" data-name="Vector" d="M2.46.995H.714A.8.8,0,0,1,.2.836.55.55,0,0,1,0,.477.406.406,0,0,1,.2.159.731.731,0,0,1,.714,0H2.46Z" transform="translate(18.176 90.156)" fill="#fff"/>
    <path id="Vector-35" data-name="Vector" d="M3.889,8.952a.678.678,0,1,1,.476-.2A.823.823,0,0,1,3.889,8.952Zm-2.024,0A.676.676,0,1,1,2.341,7.8a.674.674,0,0,1,0,.955A.823.823,0,0,1,1.865,8.952ZM.675,6.087A.632.632,0,0,1,.2,5.928.55.55,0,0,1,0,5.57a.406.406,0,0,1,.2-.318.632.632,0,0,1,.476-.159h2.7V0H4.4V5.093h.913V6.127H.675Z" transform="translate(19.961 85.063)" fill="#fff"/>
    <path id="Vector-36" data-name="Vector" d="M2.857.995H.675A.632.632,0,0,1,.2.836.55.55,0,0,1,0,.477.406.406,0,0,1,.2.159.632.632,0,0,1,.675,0H2.857Z" transform="translate(24.605 90.156)" fill="#fff"/>
    <path id="Vector-37" data-name="Vector" d="M9.088,5.172V6.207H.675A.632.632,0,0,1,.2,6.048.55.55,0,0,1,0,5.689a.406.406,0,0,1,.2-.318.731.731,0,0,1,.476-.2H.952c.437,0,.714-.04.794-.159a.85.85,0,0,0,.119-.477V0H2.9V5.172H4.564V0H5.6V5.172H7.1V0H8.175V5.172Z" transform="translate(26.787 84.943)" fill="#fff"/>
    <path id="Vector-38" data-name="Vector" d="M4.246.995H.675A.632.632,0,0,1,.2.836.55.55,0,0,1,0,.477.406.406,0,0,1,.2.159.692.692,0,0,1,.675,0H4.246Z" transform="translate(35.2 90.156)" fill="#fff"/>
    <path id="Vector-39" data-name="Vector" d="M1.587,0H2.619V10.543H.675A.632.632,0,0,1,.2,10.384a.55.55,0,0,1-.2-.358.406.406,0,0,1,.2-.318.692.692,0,0,1,.476-.159h.913Z" transform="translate(38.772 80.608)" fill="#fff"/>
    <path id="Vector-40" data-name="Vector" d="M0,0H1.032V10.5H0Z" transform="translate(42.979 80.687)" fill="#fff"/>
    <path id="Vector-41" data-name="Vector" d="M3.929,5.849V1.233a4.676,4.676,0,0,0-2.1,1.154,2.593,2.593,0,0,0-.794,1.87,1.371,1.371,0,0,0,.6,1.194,3.362,3.362,0,0,0,1.9.438h.4ZM4.961,7.4a7.908,7.908,0,0,1-.119,1.393,3.522,3.522,0,0,1-.4,1.194,2.39,2.39,0,0,1-.794.875,2.4,2.4,0,0,1-1.389.358V10.185a1.689,1.689,0,0,0,.952-.239A1.475,1.475,0,0,0,3.73,9.27a3.387,3.387,0,0,0,.2-.955,10.83,10.83,0,0,0,.04-1.154V6.923H3.413a3.9,3.9,0,0,1-2.5-.716A2.341,2.341,0,0,1,0,4.3,3.724,3.724,0,0,1,.357,2.705,4.565,4.565,0,0,1,1.389,1.393,4.76,4.76,0,0,1,2.976.477,7.556,7.556,0,0,1,5,0V7.4Z" transform="translate(45.399 84.267)" fill="#fff"/>
    <path id="Vector-42" data-name="Vector" d="M4.762.676a.66.66,0,0,1-.2.477.669.669,0,0,1-.952,0,.66.66,0,0,1-.2-.477A.66.66,0,0,1,3.611.2a.669.669,0,0,1,.952,0A.66.66,0,0,1,4.762.676ZM2.5.676a.66.66,0,0,1-.2.477.669.669,0,0,1-.952,0,.66.66,0,0,1-.2-.477A.66.66,0,0,1,1.349.2.669.669,0,0,1,2.3.2.66.66,0,0,1,2.5.676ZM4.8,8.236c0,.2.079.279.238.279h.675V9.549H4.921a1.2,1.2,0,0,1-.833-.318,1.491,1.491,0,0,1-.317-.995L3.73,3.859c-.238.119-.516.279-.833.438a7.47,7.47,0,0,0-.913.637,3.826,3.826,0,0,0-.714.875A2.179,2.179,0,0,0,.952,6.963,1.368,1.368,0,0,0,1.508,8.2a3.408,3.408,0,0,0,1.706.438L3.135,9.668A4.293,4.293,0,0,1,1.508,9.31a2.55,2.55,0,0,1-.952-.676A1.709,1.709,0,0,1,.119,7.8,3.322,3.322,0,0,1,0,6.923a3.209,3.209,0,0,1,.6-1.91A5.453,5.453,0,0,1,1.945,3.66a7.878,7.878,0,0,1,1.587-.875c.556-.239.992-.358,1.31-.477V8.236Z" transform="translate(55.003 81.602)" fill="#fff"/>
    <path id="Vector-43" data-name="Vector" d="M3.373.995H.675A.632.632,0,0,1,.2.836.55.55,0,0,1,0,.477.406.406,0,0,1,.2.159.692.692,0,0,1,.675,0h2.7Z" transform="translate(60.003 90.156)" fill="#fff"/>
    <path id="Vector-44" data-name="Vector" d="M5.635.676a.66.66,0,0,1-.2.477.669.669,0,0,1-.952,0,.66.66,0,0,1-.2-.477A.66.66,0,0,1,4.484.2a.669.669,0,0,1,.952,0A.536.536,0,0,1,5.635.676ZM2.381,6.326a2.037,2.037,0,0,0,.794,1.631A4.76,4.76,0,0,0,5.6,8.833V4.178H5.357a9.706,9.706,0,0,0-1.071.08,2.454,2.454,0,0,0-.952.318,1.836,1.836,0,0,0-.675.676A2.034,2.034,0,0,0,2.381,6.326ZM.675,9.827A.632.632,0,0,1,.2,9.668.55.55,0,0,1,0,9.31a.406.406,0,0,1,.2-.318.632.632,0,0,1,.476-.159H2.659a2.866,2.866,0,0,1-1.31-2.507,2.947,2.947,0,0,1,.278-1.353,2.867,2.867,0,0,1,.833-.995,4.229,4.229,0,0,1,1.27-.637,5.216,5.216,0,0,1,1.627-.2h.6a4.572,4.572,0,0,1,.635.08v6.6Z" transform="translate(62.701 81.323)" fill="#fff"/>
    <path id="Vector-45" data-name="Vector" d="M0,0V10.464H1.945V9.429H1.032V0Z" transform="translate(70.916 80.687)" fill="#fff"/>
    <path id="Vector-46" data-name="Vector" d="M4.246.995H.675A.632.632,0,0,1,.2.836.55.55,0,0,1,0,.477.406.406,0,0,1,.2.159.692.692,0,0,1,.675,0H4.246Z" transform="translate(72.186 90.156)" fill="#fff"/>
    <path id="Vector-47" data-name="Vector" d="M5.873.676a.66.66,0,0,1-.2.477.669.669,0,0,1-.952,0,.66.66,0,0,1-.2-.477A.66.66,0,0,1,4.722.2a.669.669,0,0,1,.952,0A.66.66,0,0,1,5.873.676ZM2.421,5.968A2.844,2.844,0,0,0,2.857,7.52a1.648,1.648,0,0,0,1.032.8h.437a1.648,1.648,0,0,0,1.032-.8,2.825,2.825,0,0,0,.4-1.552,3.4,3.4,0,0,0-.119-.915A2.221,2.221,0,0,0,5.278,4.3a2.124,2.124,0,0,0-.516-.517,1.2,1.2,0,0,0-.635-.2,1.2,1.2,0,0,0-.635.2,1.292,1.292,0,0,0-.516.517,2.221,2.221,0,0,0-.357.756A1.817,1.817,0,0,0,2.421,5.968ZM3.611.676a.66.66,0,0,1-.2.477.669.669,0,0,1-.952,0,.66.66,0,0,1-.2-.477A.66.66,0,0,1,2.46.2a.669.669,0,0,1,.952,0A.536.536,0,0,1,3.611.676ZM.675,9.35A.632.632,0,0,1,.2,9.191.55.55,0,0,1,0,8.833a.406.406,0,0,1,.2-.318.632.632,0,0,1,.476-.159H2.1a4.572,4.572,0,0,1-.556-1.074,4.494,4.494,0,0,1-.2-1.273,4.554,4.554,0,0,1,.2-1.313,3.132,3.132,0,0,1,.6-1.074,3.153,3.153,0,0,1,.873-.756,2.379,2.379,0,0,1,1.071-.279,1.919,1.919,0,0,1,1.032.279,3.844,3.844,0,0,1,.873.756,4.674,4.674,0,0,1,.6,1.074,3.509,3.509,0,0,1,.2,1.313,4.494,4.494,0,0,1-.2,1.273,3.453,3.453,0,0,1-.556,1.074H7.461V9.39H.675Z" transform="translate(75.758 81.801)" fill="#fff"/>
    <path id="Vector-48" data-name="Vector" d="M2.5.995H.714A.8.8,0,0,1,.2.836.55.55,0,0,1,0,.477.406.406,0,0,1,.2.159.731.731,0,0,1,.714,0H2.5Z" transform="translate(82.504 90.156)" fill="#fff"/>
    <path id="Vector-49" data-name="Vector" d="M3.849,2.984a.678.678,0,0,1-.675-.676.675.675,0,1,1,1.151.477A.656.656,0,0,1,3.849,2.984ZM3.532.676a.66.66,0,0,1-.2.477.534.534,0,0,1-.476.2.656.656,0,0,1-.476-.2.735.735,0,0,1-.2-.477A.66.66,0,0,1,2.381.2a.669.669,0,0,1,.952,0A.66.66,0,0,1,3.532.676ZM1.825,2.984a.678.678,0,0,1-.675-.676.678.678,0,0,1,.675-.676.678.678,0,0,1,.675.676.678.678,0,0,1-.675.676ZM.675,10.225A.632.632,0,0,1,.2,10.066.55.55,0,0,1,0,9.708.406.406,0,0,1,.2,9.39.632.632,0,0,1,.675,9.23h2.7V4.138H4.4V9.23h.913v1.034H.675Z" transform="translate(84.329 80.925)" fill="#fff"/>
    <path id="Vector-50" data-name="Vector" d="M4.246.995H.675A.632.632,0,0,1,.2.836.55.55,0,0,1,0,.477.406.406,0,0,1,.2.159.692.692,0,0,1,.675,0H4.246Z" transform="translate(88.973 90.156)" fill="#fff"/>
    <path id="Vector-51" data-name="Vector" d="M1.587,0H2.619V10.543H.675A.632.632,0,0,1,.2,10.384a.55.55,0,0,1-.2-.358.406.406,0,0,1,.2-.318.692.692,0,0,1,.476-.159h.913V0Z" transform="translate(92.544 80.608)" fill="#fff"/>
    <path id="Vector-52" data-name="Vector" d="M0,0H1.032V10.5H0Z" transform="translate(96.751 80.687)" fill="#fff"/>
    <path id="Vector-53" data-name="Vector" d="M5,.676a.66.66,0,0,1-.2.477.669.669,0,0,1-.952,0,.66.66,0,0,1-.2-.477A.66.66,0,0,1,3.849.2.669.669,0,0,1,4.8.2.66.66,0,0,1,5,.676Zm-2.262,0a.66.66,0,0,1-.2.477.669.669,0,0,1-.952,0,.66.66,0,0,1-.2-.477A.66.66,0,0,1,1.587.2.669.669,0,0,1,2.54.2.66.66,0,0,1,2.738.676Zm1.071,7.8V3.82a8.746,8.746,0,0,0-.833.438,4.709,4.709,0,0,0-.913.637,3.616,3.616,0,0,0-.714.836A2,2,0,0,0,1.032,6.8a1.149,1.149,0,0,0,.278.8,1.8,1.8,0,0,0,.675.517,3.2,3.2,0,0,0,.873.279,7.109,7.109,0,0,0,.873.08ZM4.842,9.549H3.73a5.954,5.954,0,0,1-1.151-.119,3.6,3.6,0,0,1-1.23-.477A2.737,2.737,0,0,1,.4,8.116,2.066,2.066,0,0,1,0,6.8,2.889,2.889,0,0,1,.278,5.491,5.056,5.056,0,0,1,.992,4.416a5.028,5.028,0,0,1,.992-.836,7.222,7.222,0,0,1,1.071-.6,6.443,6.443,0,0,1,.992-.4c.317-.08.556-.159.754-.2V9.549Z" transform="translate(102.346 81.602)" fill="#fff"/>
    <path id="Vector-54" data-name="Vector" d="M2.738,6.565c0,.438-.04.875-.079,1.353A3.179,3.179,0,0,1,2.3,9.151a2.619,2.619,0,0,1-.833.915A2.586,2.586,0,0,1,0,10.424V9.39a1.553,1.553,0,0,0,.913-.239,1.366,1.366,0,0,0,.516-.637,2.03,2.03,0,0,0,.2-.875A8.675,8.675,0,0,0,1.667,6.6V0H2.7V5.132h.913V6.167H2.7v.4Z" transform="translate(107.307 85.063)" fill="#fff"/>
    <path id="Vector-55" data-name="Vector" d="M2.5.995H.714A.8.8,0,0,1,.2.836.55.55,0,0,1,0,.477.406.406,0,0,1,.2.159.731.731,0,0,1,.714,0H2.5Z" transform="translate(110.204 90.156)" fill="#fff"/>
    <path id="Vector-56" data-name="Vector" d="M3.333.995H.675A.632.632,0,0,1,.2.836.55.55,0,0,1,0,.477.406.406,0,0,1,.2.159.971.971,0,0,1,.675,0h2.7V.995Z" transform="translate(112.029 90.156)" fill="#fff"/>
    <path id="Vector-57" data-name="Vector" d="M3.929.756a2.5,2.5,0,0,0-.873-.2.591.591,0,0,0-.4.119.388.388,0,0,0-.159.358.635.635,0,0,0,.317.557,1.416,1.416,0,0,0,.754.159h.476v.517H1.389V1.751h.873A.558.558,0,0,1,2.1,1.472,2,2,0,0,1,2.024.995.787.787,0,0,1,2.381.239,1.278,1.278,0,0,1,3.1,0,2.614,2.614,0,0,1,4.167.239ZM2.7,3.223H3.73V9.39H.714A.8.8,0,0,1,.2,9.23.55.55,0,0,1,0,8.872a.55.55,0,0,1,.2-.358.731.731,0,0,1,.516-.159H2.7Z" transform="translate(114.688 81.801)" fill="#fff"/>
    <path id="Vector-58" data-name="Vector" d="M0,0H1.032V10.5H0Z" transform="translate(120.006 80.687)" fill="#fff"/>
    <path id="Vector-59" data-name="Vector" d="M0,.915A4.181,4.181,0,0,1,1.032.279,3.456,3.456,0,0,1,2.5,0,3.107,3.107,0,0,1,3.889.318a3.5,3.5,0,0,1,.992.875,3.244,3.244,0,0,1,.6,1.233,5.617,5.617,0,0,1,.2,1.393A8.422,8.422,0,0,1,5.6,4.854c-.079.318-.119.637-.2.915a2.665,2.665,0,0,1-.278.676c-.079.2-.159.358-.2.438H0V5.849H4.286c.079-.2.159-.477.278-.8a5.182,5.182,0,0,0,.159-1.233,3.359,3.359,0,0,0-.159-1.074,2.547,2.547,0,0,0-.4-.875,1.977,1.977,0,0,0-.675-.6,1.736,1.736,0,0,0-.913-.239,2.394,2.394,0,0,0-.873.159,4.3,4.3,0,0,0-.992.557Z" transform="translate(122.427 84.307)" fill="#fff"/>
    <path id="Vector-60" data-name="Vector" d="M15.643,11.1c-.159-.04-.317-.119-.516-.159a5.136,5.136,0,0,0-.357.637c.278.08.437.159.714.239.119-.159.159-.279.278-.438.159.04.317.119.516.159a5.185,5.185,0,0,1,.4-.6c-.278-.08-.476-.159-.754-.239A1.429,1.429,0,0,0,15.643,11.1ZM27.906,7.918c-.357-.6-1.746-.04-2.579.279h2.619A.369.369,0,0,0,27.906,7.918Zm.6,1.114a48.377,48.377,0,0,0-11.508.915,5.683,5.683,0,0,0-.556-.995c-.754-.8-1.071.08-1.071.159.952.04,1.111.557,1.111.557a2.5,2.5,0,0,1-.913.915,3.618,3.618,0,0,1-1.627.557c-1.786.08-1.31-1.751-.2-2.546-.119.159-.794,1.154-.4,1.631.437.557,2.1.119,2.5-.4a1.509,1.509,0,0,0-1.191-.2,2.784,2.784,0,0,1,1.032-1.79,2.391,2.391,0,0,1,1.468,1.273,42.707,42.707,0,0,1,7.58-.915c-.04-.438-.2-2.148-.238-2.268-.04-.279.159-.4.357-.517a1.316,1.316,0,0,0,.833.676,2.734,2.734,0,0,1-.516.438c.04.318.04.955.079,1.194a8.835,8.835,0,0,1,1.746-.6,6.662,6.662,0,0,1,.794-.08,1.5,1.5,0,0,1,.675.279.753.753,0,0,1,.278.557A4.2,4.2,0,0,1,28.5,9.032ZM17.31,10.623c.238.119.437.2.675.318.2-.239.278-.318.476-.557-.278-.119-.437-.2-.714-.318C17.628,10.225,17.429,10.464,17.31,10.623ZM27.549,6.048c-.238-.159-.357-.279-.6-.438-.2.159-.437.318-.6.477.2.159.357.279.6.438A3.9,3.9,0,0,1,27.549,6.048Zm4.683,3.819c-.238.119-.476.279-.675.4l.516.517a5.538,5.538,0,0,1,.675-.358A2.268,2.268,0,0,0,32.231,9.867Zm-1.667-1.79a1.044,1.044,0,0,0-.317.318c.079.159.278.2.556.239h.159A.39.39,0,0,0,30.565,8.077Zm5.873,1.591a2.428,2.428,0,0,1-.6.875A21.382,21.382,0,0,0,31.4,9.469a3.422,3.422,0,0,1-1.349.995,5.271,5.271,0,0,1-1.786-.517h.6a4.309,4.309,0,0,0,1.9-.557c-1.071-.159-1.31-.438-.794-1.154.238-.318.635-.875,1.191-.716.437.119.556.756.516,1.233a23.609,23.609,0,0,1,4.008.995c.079-.358-.159-.517-.278-.756a4.571,4.571,0,0,1,.675-.557A1.219,1.219,0,0,1,36.438,9.668Zm1.31-.438a1.133,1.133,0,0,0-.714.756,14.75,14.75,0,0,1-.714,1.591c.159.08.4-.08.556-.159a5.23,5.23,0,0,0,1.508-2.387A1.5,1.5,0,0,0,37.748,9.23Zm.992-.517a1.987,1.987,0,0,1-.873-.4c.159-.119.4.04.476.159l.2-.2a.765.765,0,0,0-1.111.2.626.626,0,0,1,.317.2,1.539,1.539,0,0,0-.437.239C37.946,8.833,38.5,8.992,38.74,8.713Zm-15,31.312a6.4,6.4,0,0,0-.833-2.268A2.89,2.89,0,0,0,23.739,40.025Zm.635-6.764a3.737,3.737,0,0,0,.476-2.745,2.247,2.247,0,0,1-.794,1.552,1.684,1.684,0,0,1-.675-.875A2.515,2.515,0,0,0,24.374,33.261Zm-1.31-5.371c-.794.995.437,2.268.437,2.268C23.5,30.2,23.62,28.288,23.064,27.89Zm.913,8.395a3.6,3.6,0,0,1-1.071-1.114,5.121,5.121,0,0,0,1.468,2.268,3.844,3.844,0,0,0,.2-3.024A6.69,6.69,0,0,1,23.977,36.285Zm-.317-11.14a1.535,1.535,0,0,0-.437,2.228A7.156,7.156,0,0,0,23.66,25.145Zm1.945,1.79a2.373,2.373,0,0,0,0,2.507C25.6,29.4,26.2,27.731,25.6,26.935Zm.278-2.745a1.151,1.151,0,0,0-.278,1.432C25.6,25.662,26.477,24.707,25.882,24.19Zm2.46,9.708a4.094,4.094,0,0,0,1.191-2.666,2.593,2.593,0,0,1-1.191,1.393,1.692,1.692,0,0,1-.675-.955A2.667,2.667,0,0,0,28.342,33.9Zm21.985,2.467c-.04-1.194-.079-3.024-.119-3.9-1.071.955-2.381,1.91-6.588,4.217l-.754.4-.04-.875A49.164,49.164,0,0,0,39.1,19.694c-.6.756-1.151,1.552-1.746,2.308h.04c.04,0,.079.04.159.04a2.252,2.252,0,0,1,.714.477A16.2,16.2,0,0,1,41.2,27.572a14.245,14.245,0,0,1,.675,4.735s-.476,8.833-1.429,17.307c-.873,7.679-1.349,8.713-1.349,8.713a5.461,5.461,0,0,1-.913-2.109l-.079.08a6.359,6.359,0,0,1-.794-2.268,34.573,34.573,0,0,1-.357-6.286,2.577,2.577,0,0,0-.317-1.194,5.684,5.684,0,0,1-.357-1.074,7.447,7.447,0,0,0-2.1-3.78,10.293,10.293,0,0,1-1.389-2.029,2.732,2.732,0,0,0-.754,1.034,8.549,8.549,0,0,1,.04,3.183c-.079-.04-.238-.2-.317-.239.079.955-.357,2.029-.079,2.9l-.556-.08c.04.08.04.119.079.119a.808.808,0,0,0,.278.239c.04,0,.119.08.2.08a3,3,0,0,0,.556.2,1.733,1.733,0,0,0-.238-1.79c-.278-.318.04-.8.6-.557a7.786,7.786,0,0,1,2.3,1.552C36.041,47.425,36.4,48.5,36.16,48.7c-.2.159-.317.119-.556.04a.146.146,0,0,1-.04.119.732.732,0,0,1-.516.438l-.04.04a.766.766,0,0,1-.675.239,1.947,1.947,0,0,1-.675-.2,2.43,2.43,0,0,1-.238-.159,1.989,1.989,0,0,0-.317.279l.119.119a2.29,2.29,0,0,1,.556.995,1.41,1.41,0,0,1,.04.239,29.634,29.634,0,0,1,2.9,3.939,19,19,0,0,1,1.27,2.705,1.974,1.974,0,0,1-1.071,0A3.958,3.958,0,0,1,37.192,59a3.3,3.3,0,0,1-1.706-.4,3.079,3.079,0,0,1,.079.6c.873.557,1.508,1.074,1.825,1.313-2.778,1.313-6.746.716-6.826.676a4.117,4.117,0,0,0-.6-.08l-.119-.04S30.842,63.42,31,63.817a9.291,9.291,0,0,0,5.873.915,7.879,7.879,0,0,0,1.508-.4A15.034,15.034,0,0,0,43.1,61.271,18.827,18.827,0,0,0,46.677,56.7c3.056-5.968,3.572-14.84,3.572-18.421C50.328,37.041,50.328,36.4,50.328,36.365ZM31.239,66.284c0-.04-1.746-4.3-1.945-4.735-.04.04-.04.08-.079.08h-.079a3.983,3.983,0,0,1-.635-.477,27.577,27.577,0,0,1,.675,4.814A1.9,1.9,0,0,1,31.239,66.284Zm-2.54.756a48.609,48.609,0,0,0-.794-6.406.572.572,0,0,0-.278-.08l-.238.6c-.2.4-.476.8-.516.756a3.865,3.865,0,0,1-1.31-1.552,3.665,3.665,0,0,1-1.27,1.512,2.482,2.482,0,0,1-.516-.756,4.426,4.426,0,0,1-.278-.637.039.039,0,0,1-.04.04,50.333,50.333,0,0,0-.714,6.525c-1.667-1.114-2.659,0-2.3.756a.549.549,0,0,0,.119.159,1.089,1.089,0,0,0,.833.438,5.036,5.036,0,0,1,2.024.477,6.78,6.78,0,0,1,2.3,1.91,6.34,6.34,0,0,1,2.3-1.91,5.817,5.817,0,0,1,2.024-.477,1.227,1.227,0,0,0,.833-.438c.04-.04.079-.119.119-.159C31.358,67.04,30.366,65.926,28.7,67.04Zm-8.492-.756a1.876,1.876,0,0,1,1.984-.279,38.591,38.591,0,0,1,.6-4.735.808.808,0,0,0-.278.239,1.235,1.235,0,0,1-.238.159h-.04c-.04,0-.079-.08-.079-.119C21.874,62.266,20.247,66.244,20.207,66.284Zm.2-2.507.04-.08c.159-.438,1.111-2.705,1.111-2.705a.146.146,0,0,0-.119.04c-.437.08-.873.119-1.31.2-.238.04-4.048.6-6.826-.676a25.02,25.02,0,0,1,2.381-1.671,1.164,1.164,0,0,1,.079-.358,3.3,3.3,0,0,1-1.706.4,3.958,3.958,0,0,1,.278-1.512,2.681,2.681,0,0,1-1.071,0,14.807,14.807,0,0,1,1.27-2.705,24.946,24.946,0,0,1,2.381-3.3,1.18,1.18,0,0,1-.079-.4c0-.159.04-.279.04-.4a1.769,1.769,0,0,1,.556-.995l.159-.159c-.119-.119-.238-.2-.317-.279a.916.916,0,0,1-.278.2,1.485,1.485,0,0,1-.675.2c-.357,0-.556-.04-.675-.239l-.04-.04a.732.732,0,0,1-.516-.438v-.119a.428.428,0,0,1-.516-.08c-.238-.2.079-1.273,1.27-2.387a8.068,8.068,0,0,1,2.3-1.552c.556-.239.873.239.6.557a1.733,1.733,0,0,0-.238,1.79,3.367,3.367,0,0,0,.516-.2.706.706,0,0,0,.437-.318c0-.04.04-.08.04-.119l-.476.04c.238-.6-.119-2.109.119-3.064-.079.04-.238.159-.317.2a12.726,12.726,0,0,1-.079-2.984c0-.2-.278-.517-.635-.875a19.419,19.419,0,0,1-1.31,1.87,7.356,7.356,0,0,0-2.1,3.78c-.04.08-.04.2-.079.279-.04.119-.079.2-.119.318-.04.08-.04.119-.079.2-.04.119-.079.2-.119.318a2.577,2.577,0,0,0-.317,1.194,38.55,38.55,0,0,1-.357,6.286,7.49,7.49,0,0,1-.794,2.268l-.079-.08a5.224,5.224,0,0,1-.913,2.109s-.476-.995-1.349-8.713C9.572,41.139,9.1,32.267,9.1,32.267a13.292,13.292,0,0,1,.675-4.735,14.792,14.792,0,0,1,2.937-5.053,1.726,1.726,0,0,1,.794-.517,2.232,2.232,0,0,1,.278-.04l-1.786-2.387a49.124,49.124,0,0,0-3.77,16.591L8.183,37l-.754-.438A36.958,36.958,0,0,1,.841,32.346C.8,33.3.722,36.285.722,36.285v1.87c0,3.581.635,12.374,3.572,18.421a17.7,17.7,0,0,0,3.453,4.615,13.6,13.6,0,0,0,5.159,3.024c.119.04.317.119.437.159A9.047,9.047,0,0,0,20.405,63.778ZM.881,31.312c.278.4,1.032,1.273,6.508,4.416A50.611,50.611,0,0,1,11.4,18.859l-1.429-1.91a3.253,3.253,0,0,1-1.468.836,6.457,6.457,0,0,0-.714-3.223,13.152,13.152,0,0,1-3.254-.318C2.389,18.859,1.278,24.23.881,31.312ZM4.571,14.2a4.041,4.041,0,0,0,1.27-1.114,4.48,4.48,0,0,0,.476-.836,6.8,6.8,0,0,0-.437-.557A24.888,24.888,0,0,0,4.571,14.2Zm2.183-2.785a3.671,3.671,0,0,0,.2-.318C5.881,9.708,5.167,8.753,5.127,8.673a2.929,2.929,0,0,1-.476-1.79A13.565,13.565,0,0,1,2.428,5.61S4.452,8.395,6.754,11.419Zm7.262-8.395a.875.875,0,0,0-.4.716,1.885,1.885,0,0,0-.476,1.95A15.843,15.843,0,0,0,6.873,10.3l.357.477A15.376,15.376,0,0,1,14.1,5.888a1.335,1.335,0,0,1,.278-1.87,1.644,1.644,0,0,1,1.587,1.273A34.83,34.83,0,0,1,23.62,4.217a2.617,2.617,0,0,1,1.508-2.467s.04-.4.317-.517a.573.573,0,0,1,.317.517,2.555,2.555,0,0,1,1.508,2.467A34.83,34.83,0,0,1,34.93,5.292c.079-.4.357-1.114,1.587-1.273a1.335,1.335,0,0,1,.278,1.87,15.551,15.551,0,0,1,6.945,4.973l.357-.477a16.1,16.1,0,0,0-6.35-4.655,1.81,1.81,0,0,0-.476-1.95.875.875,0,0,0-.4-.716,1.062,1.062,0,0,0-.833.318,2.359,2.359,0,0,0-1.786,1.233,36.937,36.937,0,0,0-6.469-.875A2.77,2.77,0,0,0,26.16,1.353a1.29,1.29,0,0,0-.833-.716,1.228,1.228,0,0,0-.833.716A2.721,2.721,0,0,0,22.866,3.74a33.5,33.5,0,0,0-6.469.875,2.3,2.3,0,0,0-1.786-1.233C14.572,3.1,14.254,3.024,14.016,3.024ZM44.137,11.18c.04.04.159.279.2.318,2.341-3.1,4.484-5.968,4.484-5.968A15.578,15.578,0,0,1,46.6,6.764a2.844,2.844,0,0,1-.476,1.79C46.042,8.673,45.288,9.708,44.137,11.18Zm.952.557c-.119.159-.4.557-.4.557a4.258,4.258,0,0,0,1.746,1.87C46.042,13.328,45.565,12.533,45.089,11.737Zm-6.627,7.639c.159-.239,1.032-1.393,2.183-2.9a2.206,2.206,0,0,1-.238-.318c-.794,1.074-1.587,2.148-2.381,3.183a20.493,20.493,0,0,0-1.468,2.188C36.557,21.763,38.025,19.973,38.462,19.376Zm-3.889,9.31a7.337,7.337,0,0,0,.357-.995,4.958,4.958,0,0,0,.04-1.711A7.946,7.946,0,0,0,34.573,28.686Zm-.952,2.069a13.205,13.205,0,0,0,.6-3.461A7.342,7.342,0,0,0,33.62,30.755Zm-1.23-1.472c.476-1.432.079-2.188-.2-2.347C32.192,27.612,32.35,27.93,32.39,29.283Zm-.357,6.843A35.318,35.318,0,0,1,33.144,29.6C31.636,31.352,31.835,35.49,32.033,36.126ZM24.056,60.117a3.752,3.752,0,0,0,.159.4c0,.04.2.4.2.438a3.315,3.315,0,0,0,.6-.875l.4-.836a3.846,3.846,0,0,1-.357.279c-.159.119-.357.239-.556.358-.079.04-.357.2-.437.239Zm-9.8.239a17.39,17.39,0,0,0,5.992.318,10.27,10.27,0,0,0,4.722-1.711c-.317-.279-.714-.637-1.151-1.034a9.132,9.132,0,0,1-1.627,1.114,21.383,21.383,0,0,1-5.437,1.194,32.794,32.794,0,0,0,5.4-1.671,9.274,9.274,0,0,0,1.27-.955c-.516-.477-1.032-.995-1.389-1.393-.278.239-.476.4-.754.6a13.54,13.54,0,0,1-1.865.915A19.053,19.053,0,0,0,14.254,60.356Zm4.564-24.23c.2-.637.437-4.735-1.111-6.525A32.22,32.22,0,0,1,18.818,36.126ZM15.961,25.941A4.908,4.908,0,0,0,16,27.652a7.337,7.337,0,0,0,.357.995A7.78,7.78,0,0,0,15.961,25.941Zm.754,1.313a11.958,11.958,0,0,0,.6,3.461A6.867,6.867,0,0,0,16.715,27.254Zm-6.27-10.941c1.23,1.631,2.143,2.9,2.341,3.143.437.6,1.9,2.387,1.9,2.148a25.734,25.734,0,0,0-1.468-2.188c-.873-1.114-1.746-2.268-2.579-3.422A3.671,3.671,0,0,0,10.445,16.312ZM9.333,10.5c-.119-.159-.437-.438-1.23.119-1.389,1.233-.952,2.308-2.381,3.3a8.357,8.357,0,0,0,1.27.119,2.621,2.621,0,0,0,.6-.04c.278-.04.476-.08.675-.119A6.5,6.5,0,0,1,9.1,16.869c1.667-.915.992-3.78,2.579-3.74C10.762,12.135,9.492,10.663,9.333,10.5Zm32.144-.676A13.454,13.454,0,0,0,37.39,7.2C32.866,5.212,27.152,5.212,25.525,5.212s-7.342,0-11.866,1.989A14.833,14.833,0,0,0,9.572,9.827s2.064,2.308,2.579,2.9a.952.952,0,0,1,.2,1.074c3.135-2.109,6.707-3.143,13.056-3.183h.278c6.23.04,9.921,1.114,13.017,3.223a.952.952,0,0,1,.2-1.074C39.414,12.135,41.478,9.827,41.478,9.827Zm-.913,4.854A3.974,3.974,0,0,0,41.6,16.71a1.68,1.68,0,0,0,.278.2,5.887,5.887,0,0,1,.833-2.944,5.717,5.717,0,0,0,2.54,0c-1.31-.875-1.032-1.87-1.984-2.944a3.035,3.035,0,0,0-.357-.358,1.469,1.469,0,0,0-.794-.318.566.566,0,0,0-.437.2c-.119.119-1.468,1.591-2.381,2.586C40.129,13.09,40.367,13.806,40.565,14.681Zm-1.071,1.989a2.824,2.824,0,0,0,.4-.557,17.661,17.661,0,0,0-7.58-3.939,21.532,21.532,0,0,0-4.683-.477c-.833,0-1.389.318-1.389.875-.516-.08-.675-.756-.714-.875a1.13,1.13,0,0,1-.714.875c0-.517-.556-.836-1.389-.875a21.746,21.746,0,0,0-4.683.477,17.123,17.123,0,0,0-7.54,3.819c.119.2.278.358.4.557a15.983,15.983,0,0,1,6.23-3.5,19.158,19.158,0,0,1,5.437-.716c.992.04,1.111.6,1.032.915a1.538,1.538,0,0,0,1.23-.6,1.651,1.651,0,0,0,1.23.6c-.119-.318.04-.875.992-.915a20.535,20.535,0,0,1,5.437.716A16.313,16.313,0,0,1,39.494,16.671ZM19.85,36.444a2.291,2.291,0,0,0,.992,1.751A7.575,7.575,0,0,0,19.85,36.444Zm7.659,6.684a2.1,2.1,0,0,1-.675.756,3.457,3.457,0,0,0,.119-.517,3.317,3.317,0,0,1-.635.836,2.292,2.292,0,0,0-.6.955,2.891,2.891,0,0,1,.714-.517A2.408,2.408,0,0,0,27.509,43.129Zm.4,6.207a8.037,8.037,0,0,0-1.032-1.194,8.158,8.158,0,0,1,.437,1.194c.04,0,.04-.04.079-.04a.357.357,0,0,1,.2-.04.5.5,0,0,1,.238.04A.138.138,0,0,0,27.906,49.335Zm-.317,5.093L28.66,55.5a5.206,5.206,0,0,0,.476-.517l-1.071-.995C28.025,53.99,27.866,54.189,27.588,54.428Zm-1.945-1.95c.476.517,1.111,1.154,1.548,1.591l.437-.438L25.961,52.12A2.012,2.012,0,0,1,25.644,52.478Zm-.159-.915v.557l.278-.279A1.794,1.794,0,0,1,25.485,51.563Zm-.04-.318c.04-.04.278-.318.4-.477h.04a4.619,4.619,0,0,0-.4-1.591C25.445,49.415,25.445,50.449,25.445,51.245Zm.714-2.785c.079.477.119,1.512.159,1.87l.4-.4A4.336,4.336,0,0,0,26.16,48.46Zm-.754-.477a1.753,1.753,0,0,0,.357-.2,1.487,1.487,0,0,0,.516-.477.868.868,0,0,0,.079-.517.9.9,0,0,1-.317.438l-.4.4A2.257,2.257,0,0,0,25.406,47.982Zm-.357-3.024c0-.756-.833-.836-1.032-1.631C23.9,44.4,24.652,44.441,25.049,44.959Zm.437,1.751h0a1.284,1.284,0,0,1,.317-.358,8.314,8.314,0,0,0,1.31-.955,1.63,1.63,0,0,0,.278-.6,1.367,1.367,0,0,1-.556.477,8.24,8.24,0,0,0-1.23.875,1.446,1.446,0,0,0-.119.279.566.566,0,0,0-.079-.239c-.238-.477-.913-.676-1.349-1.154-.278-.318-.278-.438-.278-.438a1.137,1.137,0,0,0,.2.756,4.082,4.082,0,0,0,.913.756A2.064,2.064,0,0,1,25.485,46.709Zm-.357.955a1.1,1.1,0,0,0-.516-.8C24.612,47.306,25.128,47.664,25.128,47.664Zm-.238,3.1a8.428,8.428,0,0,0-.079-1.194,2.386,2.386,0,0,0-.317.8A3.746,3.746,0,0,1,24.89,50.767Zm-2.5-1.273a5.46,5.46,0,0,1,.635-.239.4.4,0,0,0,.119-.04c.119-.358.278-.875.4-1.154A9.442,9.442,0,0,0,22.39,49.494Zm1.349.08a2.593,2.593,0,0,0,.317.279,9.285,9.285,0,0,0,.159-1.631A3.875,3.875,0,0,0,23.739,49.574Zm.04-6.525a1.342,1.342,0,0,0-.119-.477,2.083,2.083,0,0,0-.4-.438,1.177,1.177,0,0,0-.119-.159,1.357,1.357,0,0,0,.079.557.673.673,0,0,0,.278.4C23.7,43.009,23.779,43.049,23.779,43.049Zm-.317,8.037c-.04.04-3.453,3.262-3.453,3.262.238.239.437.477.6.637.079.08.119.08.159,0,.2-.2,3.651-3.342,3.929-3.581.04-.04.04-.04,0-.08-.159-.159-.516-.557-.754-.836-.317-.318-.714-.756-.952-.676-.278.08-.278.08-.635.159a3.558,3.558,0,0,1-1.587-.119h-.079a.506.506,0,0,1-.04.239c0,.08-.04.159-.04.239a9.27,9.27,0,0,0,1.429.08c.278,0,.437.08.2.358L19.85,53.155c-.476.438-.516.557-.357.716a.476.476,0,0,1,.159.159l.913-.8L22.033,51.8s1.071-.995,1.111-1.034a.12.12,0,0,1,.159,0l.2.2A.2.2,0,0,1,23.461,51.086Zm5.278-.716a11.27,11.27,0,0,0,1.389-.04.779.779,0,0,1-.04-.279,1.727,1.727,0,0,1-.04-.2h-.04a3.111,3.111,0,0,1-1.587.08c-.357-.08-.357-.08-.635-.159-.238-.08-.635.358-.952.676a10.965,10.965,0,0,0-.754.836c-.04.04-.04.04,0,.08.278.239,3.73,3.422,3.929,3.581.04.04.079.04.159,0,.159-.159.4-.4.6-.637,0,0-3.373-3.223-3.453-3.262a.24.24,0,0,1-.04-.159l.2-.2a.12.12,0,0,1,.159,0c.04.04,1.111,1.034,1.111,1.034l1.468,1.313.913.836.159-.159c.119-.159.119-.239-.357-.716l-2.381-2.387C28.3,50.449,28.461,50.37,28.739,50.37Zm-.675-9.27a3.558,3.558,0,0,0,.714-2.188c.119.119.317.239.357.477a10.44,10.44,0,0,0,1.071-3.461c.238.119.04.04.278.159a11.734,11.734,0,0,0,.754-3.382c.079.04.238.04.278.08.119-.8.238-2.109.278-3.064a10.964,10.964,0,0,0-.317-3.342,8.334,8.334,0,0,0-1.032-2.268.591.591,0,0,0-.278.239c-.159-.438-.556-1.552-.754-1.95-.516-.995-.754-1.631-1.27-1.989a3,3,0,0,0,.635.04c-.357-.279-.516-.477-.873-.8a1.036,1.036,0,0,1,.714,0c-.516-.477-.714-1.233-2.064-1.711a5.317,5.317,0,0,1,.754.04,2.233,2.233,0,0,0-1.27-.915c-1.389-.279-3.294-.318-4.167.756a2.334,2.334,0,0,1-.516.2c-.159.04-.2.119-.238.119-.159.119-.2.279.119.676-.4-.04-.476-.438-.556-.4a.868.868,0,0,0-.4.438,1.483,1.483,0,0,0-.2.8c.04.04.357.2.437-.2.04-.119.635-.2.833-.2a7.316,7.316,0,0,0,.952.04,7.5,7.5,0,0,0-.714.239c-.159.04-.2.239-.04.239a1.033,1.033,0,0,0,.437-.119c.079.04,0,.239.04.358,1.111-.279,1.191.955,2.381.716-.556-.438-1.032-1.154-1.468-1.393,1.151.2,1.786,1.233,3.056,1.313a1.965,1.965,0,0,0-.159-.358c.437,0,.754.318.873.318a1.966,1.966,0,0,1-1.032.4c.079.159.556.2.714.239a1.115,1.115,0,0,1-1.111.239,6.075,6.075,0,0,1-1.27,1.074,1.357,1.357,0,0,1,.04-.4c-.556.318-.913.875-1.31,1.034.119-.2.238-.557.317-.716a19.335,19.335,0,0,0-3.294,3.461,6.7,6.7,0,0,0-.675,3.9c.04.955.476,3.66.516,4.178a1.932,1.932,0,0,0,.278-.119,22.453,22.453,0,0,0,1.9,5.689.747.747,0,0,1,.317-.438,2.564,2.564,0,0,0,.794,1.512,1.51,1.51,0,0,1,.2-.676c.119.4.04,1.591.714,2.228a3.651,3.651,0,0,1,.159-1.034,11.189,11.189,0,0,0,.317,1.233,2.459,2.459,0,0,0,.714,1.034,3.375,3.375,0,0,1,.159-1.273,4.021,4.021,0,0,1,.556,1.591c.675-.517.952-2.268.952-2.268a1.415,1.415,0,0,1,.357.637,4.546,4.546,0,0,0,.952-2.109A2.693,2.693,0,0,1,28.065,41.1ZM39.176,17.068c-4.048-3.979-9.8-4.257-11.31-4.178-.357.04-.754.318-.317.875a2.637,2.637,0,0,1-2.024-.4,2.637,2.637,0,0,1-2.024.4c.437-.6.04-.875-.317-.875-1.508-.119-7.619.477-11.27,4.058,2.024,2.666,6.27,8.276,6.35,8.395a.667.667,0,0,0,.556.239h.119a.873.873,0,0,0,.635-.4c.437-.477.635-.756,1.071-1.194.833-.836,1.627-1.512,1.746-1.631a1.154,1.154,0,0,0,.476-.875c-.04-.318-.278-.438-.4-.6,0,.04-.04.08-.079.119a2.345,2.345,0,0,1-.278-.557l-.079.2s-.317-.756-.794-.676a2.108,2.108,0,0,1-1.151-.2c-.04,0-.079.2-.04.477h-.04a1.342,1.342,0,0,1,.278-2.069,5.1,5.1,0,0,1,1.071-.6.969.969,0,0,0,.357-.318,2.342,2.342,0,0,1,1.191-.637,8.881,8.881,0,0,1,2.381-.2,4.47,4.47,0,0,1,1.429.318A5.357,5.357,0,0,1,28.3,18.1a12.057,12.057,0,0,1,1.111,2.268c.635,1.512.556,1.353.952,2.347a10.428,10.428,0,0,0,1.23,2.427.644.644,0,0,0,.635.318,1.3,1.3,0,0,0,.675-.159.586.586,0,0,0,.278-.279C34.573,23,37.192,19.694,39.176,17.068ZM16.913,33.1a10.218,10.218,0,0,1,1.349,4.536c.556-1.552-.357-4.615-1.191-6.326a1.441,1.441,0,0,1-.238.875c-.159-1.95-1.31-3.382-1.508-4.774-.04.239-.079.4-.119.6a9.344,9.344,0,0,1-1.032-2.825,1.5,1.5,0,0,0-.2.8c-.6-1.711-.04-2.387.159-2.507.437-.279.952.159,1.349.637.6.716,1.23,2.148,3.294,2.188.317,0,.476-.08.278-.119-1.706-.318-1.984-1.074-3.413-2.705-.873-1.034-1.746-1.591-2.778-.318A14.121,14.121,0,0,0,9.849,29.6a12.292,12.292,0,0,0-.079,4.178c.238-.08.238-.159.238-.159a15.329,15.329,0,0,0,.714,3.621,5.75,5.75,0,0,0,.317-1.751,5.383,5.383,0,0,0,.833,1.79,5.05,5.05,0,0,0,.079-2.188,3.549,3.549,0,0,0,.952,1.631,8.668,8.668,0,0,0,.2-3.581,19.467,19.467,0,0,1,.278,2.109,2.137,2.137,0,0,0,.476.358c.079-.239.278-.6-.079-3.581.952,3.223.437,4.1.317,4.337a2.363,2.363,0,0,1-.714-.676,3.172,3.172,0,0,1-.317,1.751,2.3,2.3,0,0,1-.794-.836,4.553,4.553,0,0,1-.2,1.631A5.019,5.019,0,0,1,11.2,36.8a4.538,4.538,0,0,1-.437,1.751c-.794-1.074-1.032-4.178-1.032-4.178a.138.138,0,0,1-.079.04c.079,1.591.4,5.252.635,8.156.476,5.928,1.151,11.14,1.151,11.14s.079.6.159.955A13.637,13.637,0,0,0,11.675,52a4.781,4.781,0,0,0,.238-1.671c0-.557-.754-9.071-.714-9.27a78.507,78.507,0,0,1,1.111,9.39,5.207,5.207,0,0,1-.278,1.591,7.218,7.218,0,0,1-.238,3.342c-.119-.04-.159-.159-.2-.2a17.615,17.615,0,0,0,.4,1.83A8.454,8.454,0,0,0,12.508,53a6.563,6.563,0,0,0,.357-1.87c.04-1.114-.675-9.748-.714-10.5a66.554,66.554,0,0,1,1.111,9.867,10.2,10.2,0,0,1-.4,2.705,4.944,4.944,0,0,1,.04,1.313,5.238,5.238,0,0,1-.079.875c.238-.557.992-2.507.675-8.673-.159-4.018-.437-6.684-.437-6.684a38.473,38.473,0,0,1,.873,6.406,5.982,5.982,0,0,0,.437-3.422c-.119-2.148-.357-3.859-.357-3.859a22.457,22.457,0,0,1,.675,3.3,8.056,8.056,0,0,1,.119,1.313c.675-1.233.357-3.581,0-6.048a12.528,12.528,0,0,1,.754,4.735c1.151-1.154.516-3.382.079-5.968a10.62,10.62,0,0,1,.952,4.655c.913-1.273.6-2.984-.238-6.286a12.43,12.43,0,0,1,1.23,4.257C18.223,37.638,17.508,35.131,16.913,33.1ZM18.143,45.6c.2-.318-.079-.4-.675-.04a7.9,7.9,0,0,0-2.143,1.83c-.159.2-.119.318.159.04.6-.6,1.508-1.472,1.508-1.034a3.359,3.359,0,0,0,.159,1.074.734.734,0,0,0,.278-.08l.794-.2A1.886,1.886,0,0,1,18.143,45.6Zm-.4,4.138-.119.119a1.672,1.672,0,0,0-.437.8c0,.119-.04.2-.04.318a.512.512,0,0,0,.516.557c.437-.04.238-.557.476-.239.119.119.437-.279.556-.358-.079,0-.2.04-.278,0a.14.14,0,0,1-.159-.159,1.046,1.046,0,0,1,.278-.557,5.692,5.692,0,0,0,.437-.6c.2-.279.278-.279.317-.279h.04c.119.08.04.756-.159,1.154-.4.875-.476,1.472-.2,1.631h.04v.04a.746.746,0,0,0,.357.875l.04-.04a1.046,1.046,0,0,1,.04-.637c0-.04.04-.119-.238-.2h.357c.159-.04.357-.04.4-.4,0-.119.04-.239.04-.358.04-.517.159-.955.2-1.313.079-.4.159-1.353.159-1.353V48.7h.04a.191.191,0,0,1,.159,0,.4.4,0,0,1,.357.279c.04.04.04.159,0,.318a.451.451,0,0,0,.278-.358v.08a.723.723,0,0,0,.238-.318.913.913,0,0,0-.4-.716c-.238-.2-.159-.557-.04-.875l.119-.358a1.589,1.589,0,0,0,.476.4,1.663,1.663,0,0,0,1.111.318,3.176,3.176,0,0,1-.159-.716c-.04-.517-.04-.955-.04-.955l.437.477a7.157,7.157,0,0,0,.079-2.427,9.745,9.745,0,0,0-.675-2.825,5.2,5.2,0,0,0-.357-.836.9.9,0,0,1-.317.477,6.62,6.62,0,0,1-1.151-1.91,1.913,1.913,0,0,1-.357.438h.04v-.08A2.943,2.943,0,0,0,19.651,38a3.247,3.247,0,0,1-.437-.676,6.255,6.255,0,0,0-.2,1.472,4.235,4.235,0,0,1-.159,1.154.867.867,0,0,0,.2-.119c.119-.08.159-.08.2-.08h.04c.04,0,.04.04.04.08-.119.637-.278,1.353-.317,1.79a7.874,7.874,0,0,0,.04,1.472c.04-.04.476-.279.476-.279a6.869,6.869,0,0,0-.119,2.467,2.732,2.732,0,0,1-.04.836,1.331,1.331,0,0,0,.675-.279,3.3,3.3,0,0,1-.317.915,1.008,1.008,0,0,1-.4.318c-.04.04-.119.04-.2.08-.159.08-.675.239-.675.239l-.913.239c-.159.04-.357.08-.516.119-.317.08-.992.358-1.191.438-.238.119-.437.358-.4.517s.317.239.4.239l.04.119c.159.239.714.08.833.04.159-.08.278-.159.278-.2-.04.04-.2-.04-.317-.08-.04,0-.079-.08-.079-.08-.04-.159.476-.239.794-.318,0,0,.357-.04.635-.04.2,0,.278.04.357.159C18.461,48.7,18.54,48.9,17.747,49.733Zm1.071,4.416a10.762,10.762,0,0,1-1.468,2.825,7.563,7.563,0,0,1-.913,1.034s-.04.159-.079.438c.119-.04.2-.119.317-.159.516-.279,1.071-.517,1.627-.756.476-.8,1.111-1.87,1.349-2.228a9.715,9.715,0,0,1-.714,1.95c.754-.279,1.389-.517,1.706-.676a4,4,0,0,0,.952-.6.9.9,0,0,0,.2-.2l-.516-.517-.159.159a.471.471,0,0,1-.6.04c-.238-.239-1.349-1.432-1.429-1.552-.119-.119-.238-.318.04-.716a1.222,1.222,0,0,1-.4-.955,1.016,1.016,0,0,1-.2-.756.476.476,0,0,1-.317.08.637.637,0,0,1-.437.2h-.079a.632.632,0,0,1-.476-.159c-.635.8-1.31,1.711-1.746,2.387a10.487,10.487,0,0,0-1.429,2.666c.675-.04,1.032-.119,1.865-.995.4-.4,1.429-1.87,2.064-2.666a13.5,13.5,0,0,1-1.667,2.944,9.016,9.016,0,0,1-1.111,1.194s-.278.159-.437.955A4.708,4.708,0,0,0,17.429,56.1,19.6,19.6,0,0,0,18.818,54.149Zm7.937,5.968a8.911,8.911,0,0,1-.833-.477l.238.517a4.154,4.154,0,0,0,.6.875c.04-.04.04-.08.079-.119.079-.2.159-.4.238-.637Zm3.77.517a17.39,17.39,0,0,0,5.992-.318,24.234,24.234,0,0,0-5.159-2.705,8.124,8.124,0,0,1-1.865-.915c-.317-.239-.556-.4-.873-.676-.952-.875-3.413-3.461-3.849-3.939l-1.627,1.512a60.551,60.551,0,0,0,5.476,4.854,32.794,32.794,0,0,0,5.4,1.671,21.383,21.383,0,0,1-5.437-1.194c-1.389-.557-5.873-4.973-5.873-4.973l-1.071.995a33.609,33.609,0,0,0,3.691,3.541A9.708,9.708,0,0,0,30.525,60.635Zm2.818-7.48c.635.8,1.706,2.228,2.064,2.626a2.35,2.35,0,0,0,1.865.995,11.209,11.209,0,0,0-1.429-2.666c-.516-.8-1.389-1.91-2.064-2.785,0,.04-.04.08-.04.119a1.729,1.729,0,0,1-.238.279.63.63,0,0,1-.516.119.512.512,0,0,1-.437-.2.427.427,0,0,1-.317-.08,1.132,1.132,0,0,1-.159.756,1.287,1.287,0,0,1-.357.915.123.123,0,0,1,.04.08c.238.4.119.6.04.716s-1.191,1.313-1.429,1.552c-.278.279-.6-.04-.6-.04l-.159-.159L29.1,55.9l.04.04a4.878,4.878,0,0,0,1.23.756c.437.2,1.31.477,2.183.875a17,17,0,0,1-.714-2.069c.238.358.952,1.552,1.389,2.347a10.443,10.443,0,0,1,.952.477c.159.08.754.4.873.477a4.271,4.271,0,0,0-.119-.676,11.831,11.831,0,0,1-.913-1.034,10.762,10.762,0,0,1-1.468-2.825c.873,1.233,1.071,1.591,1.429,2.029a4.708,4.708,0,0,0,2.659,1.989,1.593,1.593,0,0,0-.437-.955,6.7,6.7,0,0,1-1.111-1.194A11.8,11.8,0,0,1,33.343,53.155Zm-.794-5.968.714.2c.119.04.238.04.357.08a2.443,2.443,0,0,0,.159-1.034c0-.4.913.438,1.508,1.074.238.239.317.159.159-.04a7.9,7.9,0,0,0-2.143-1.83c-.6-.358-.873-.279-.675.04C32.866,45.993,32.787,46.55,32.549,47.187Zm-1.111-7.321c0-.04,0-.04.04-.08h.079a.362.362,0,0,1,.2.119.646.646,0,0,0,.238.119,4.047,4.047,0,0,1-.2-1.154,9.365,9.365,0,0,0-.2-1.472v-.04a2.171,2.171,0,0,1-.437.676A2.68,2.68,0,0,0,30.6,39.15v.08l-.079-.08-.278-.279c-.04-.04-.04-.08-.079-.119l-.04-.04a9.789,9.789,0,0,1-1.667,2.507,5.532,5.532,0,0,0-.675,2.427,11.1,11.1,0,0,0,0,2.586l.437-.477s0,.438-.04.955a3.176,3.176,0,0,1-.159.716,1.6,1.6,0,0,0,1.468-.637l.119.318c.119.318.2.676-.04.875-.04.04-.437.4-.4.716a.462.462,0,0,0,.238.318v.04a.527.527,0,0,0,.278.358.792.792,0,0,1,0-.318.352.352,0,0,1,.357-.279h.2v.04a9.861,9.861,0,0,0,.2,1.353,9.27,9.27,0,0,1,.2,1.313c0,.119.04.239.04.358.04.318.238.358.4.4h.357c-.238.08-.238.159-.238.2a1.046,1.046,0,0,1,.04.637l.04.04c.4-.2.357-.557.317-.875v-.04h.04c.278-.159.2-.756-.2-1.631-.2-.4-.278-1.114-.159-1.154h.04c.079,0,.159,0,.357.279.119.2.278.358.437.6a1.046,1.046,0,0,1,.278.557.174.174,0,0,1-.04.119c-.04,0-.079.04-.119.04h-.278c.079.08.437.477.556.358.278-.318.04.2.476.239a.512.512,0,0,0,.516-.557.878.878,0,0,0-.04-.318,1.5,1.5,0,0,0-.437-.8l-.119-.119c-.754-.875-.714-1.034-.675-1.114.079-.119.159-.159.357-.159.278,0,.635.04.635.04.317.04.833.119.794.318a.085.085,0,0,1-.079.08c-.119.04-.278.119-.317.08a.988.988,0,0,0,.278.2c.119.04.675.2.833-.04l.04-.119c.079,0,.357-.04.4-.239.04-.159-.159-.4-.4-.517a7.994,7.994,0,0,0-1.151-.438,2.918,2.918,0,0,1-.556-.159l-.913-.239a4.741,4.741,0,0,1-.675-.239.669.669,0,0,0-.2-.08,1.008,1.008,0,0,1-.4-.318,3.71,3.71,0,0,1-.317-.955,4.434,4.434,0,0,0,.714.318,5.354,5.354,0,0,1-.04-.836c.159-1.552.159-2.427.159-2.427l.317.318a12.807,12.807,0,0,0-.079-1.552A5.409,5.409,0,0,0,31.438,39.866Zm7.58-4.735A6.678,6.678,0,0,0,39.1,37.32a5.014,5.014,0,0,0,.833-1.79,5.75,5.75,0,0,0,.317,1.751,13.52,13.52,0,0,0,.714-3.621s0,.08.238.159a13.392,13.392,0,0,0-.079-4.178A14.3,14.3,0,0,0,38.1,23.2c-1.032-1.313-1.9-.716-2.778.318C33.9,25.145,33.62,25.9,31.914,26.219c-.159.04-.04.119.278.119,2.024-.04,2.659-1.472,3.294-2.188.4-.477.913-.915,1.349-.637.159.119.714.8.159,2.507a1.387,1.387,0,0,0-.2-.8,13.625,13.625,0,0,1-1.032,2.825c-.04-.2-.079-.358-.119-.6-.2,1.393-1.349,2.825-1.508,4.774a1.352,1.352,0,0,1-.238-.875c-.873,1.711-1.786,4.814-1.23,6.326a10.218,10.218,0,0,1,1.349-4.536c-.6,2.029-1.31,4.5-.675,6.008a11.611,11.611,0,0,1,1.23-4.257c-.833,3.3-1.151,5.013-.238,6.286a10.515,10.515,0,0,1,.952-4.655c-.437,2.586-1.032,4.854.079,5.968a12.383,12.383,0,0,1,.754-4.735c-.357,2.427-.675,4.814,0,6.048a8.056,8.056,0,0,1,.119-1.313,20.99,20.99,0,0,1,.675-3.3s-.238,1.751-.357,3.859a6.284,6.284,0,0,0,.437,3.422,35.148,35.148,0,0,1,.873-6.406s-.317,2.626-.516,6.684c-.317,6.127.476,8.077.714,8.673a5.239,5.239,0,0,1-.079-.875,4.944,4.944,0,0,1,.04-1.313,8.674,8.674,0,0,1-.4-2.705,66.555,66.555,0,0,1,1.111-9.867c-.04.756-.754,9.39-.714,10.5a7.459,7.459,0,0,0,.357,1.87,8.454,8.454,0,0,0,.516,4.018,15.069,15.069,0,0,0,.4-1.83c-.04.04-.119.159-.2.2a7.861,7.861,0,0,1-.238-3.342,7.726,7.726,0,0,1-.278-1.591,80.592,80.592,0,0,1,1.111-9.39c.04.2-.675,8.713-.714,9.27a8.864,8.864,0,0,0,.238,1.671,11.092,11.092,0,0,0,.079,2.666,4.481,4.481,0,0,0,.159-.955s.675-5.212,1.151-11.14c.238-2.944.556-6.565.635-8.156v-.04s-.278,3.1-1.032,4.178a3.927,3.927,0,0,1-.437-1.751,5.1,5.1,0,0,1-.913,1.432,4.334,4.334,0,0,1-.2-1.631,2.3,2.3,0,0,1-.794.836,3.72,3.72,0,0,1-.317-1.751,2.363,2.363,0,0,1-.714.676c-.079-.239-.6-1.114.317-4.337-.357,2.984-.159,3.342-.079,3.581a1.5,1.5,0,0,0,.476-.358,19.467,19.467,0,0,1,.278-2.109,9.414,9.414,0,0,0,.2,3.581C38.3,36.6,38.581,36.166,39.017,35.131ZM46.478,14.2a10.972,10.972,0,0,1-3.214.318,6.457,6.457,0,0,0-.714,3.223,3.525,3.525,0,0,1-1.389-.756c-.476.637-.992,1.313-1.508,1.989a50.723,50.723,0,0,1,3.968,16.79c5.476-3.143,6.27-4.018,6.508-4.416C49.732,24.27,48.7,18.859,46.478,14.2Zm1.191,42.89a16.57,16.57,0,0,1-6.429,6.963c-4.048,2.586-8.254,1.95-9.643,1.154,0,0,.119.278.159.358s.079.239.119.318c.556,1.472.2,2.984-1.786,3.223a4.71,4.71,0,0,0-1.786.4A5.5,5.5,0,0,0,26.715,70.7a7.417,7.417,0,0,0-.992,1.432A6.239,6.239,0,0,0,23.1,69.507a4.71,4.71,0,0,0-1.786-.4c-1.984-.239-2.341-1.751-1.786-3.223.04-.08.079-.239.119-.318l.159-.358a9.177,9.177,0,0,1-6.389.239.734.734,0,0,1-.278-.08,13.926,13.926,0,0,1-6.111-3.422,19.4,19.4,0,0,1-3.691-4.934C-.508,49.057.047,37.24.008,35.967-.111,22.32,2.9,14.641,5.484,10.941,4.69,9.907,4.214,9.27,4.214,9.27a2.566,2.566,0,0,0-1.627-.8,26.933,26.933,0,0,0-.913-3.9A24.552,24.552,0,0,0,5.127,6.6a2.166,2.166,0,0,0,.317,1.751c.04.04.4.557,1.032,1.353a14.389,14.389,0,0,1,4.286-3.581c.476-.279.952-.517,1.468-.756a2.521,2.521,0,0,1,.675-1.91A1.437,1.437,0,0,1,13.7,2.347a1.7,1.7,0,0,1,1.429.4,3.237,3.237,0,0,1,1.9,1.034,38.544,38.544,0,0,1,5.437-.716A3.3,3.3,0,0,1,24.136.915,1.77,1.77,0,0,1,25.445,0a1.77,1.77,0,0,1,1.31.915,3.28,3.28,0,0,1,1.706,2.148A33.474,33.474,0,0,1,33.9,3.78a3.132,3.132,0,0,1,1.945-1.034,1.7,1.7,0,0,1,1.429-.4,1.3,1.3,0,0,1,.794,1.114,2.467,2.467,0,0,1,.675,1.91,12.685,12.685,0,0,1,1.468.756,16.307,16.307,0,0,1,4.365,3.621c.675-.915,1.111-1.472,1.151-1.512a2.4,2.4,0,0,0,.317-1.79,20.919,20.919,0,0,0,3.453-2.029,26.933,26.933,0,0,0-.913,3.9,2.566,2.566,0,0,0-1.627.8c-.04.04-.6.756-1.468,1.91,2.579,3.74,5.556,11.3,5.437,24.867C51,37.081,51.518,49.136,47.669,57.094ZM25.128,39.866a2.583,2.583,0,0,0-.119-2.148A2.655,2.655,0,0,0,25.128,39.866Zm.754,2.069a2.241,2.241,0,0,0-.04-1.91A2.425,2.425,0,0,0,25.882,41.935Zm1.27-8.673a3.622,3.622,0,0,1-1.032,1.711,2.954,2.954,0,0,1-.754-1.074,2.268,2.268,0,0,0,.952,2.148A3.732,3.732,0,0,0,27.152,33.261Zm-.278,8a4.835,4.835,0,0,0,.675-2.745A4.8,4.8,0,0,0,26.874,41.259ZM26.953,38a4.844,4.844,0,0,0,.635-2.467A3.97,3.97,0,0,0,26.953,38Zm-11.31-5.928a1.409,1.409,0,0,1-.556-.358,1.779,1.779,0,0,0,.833,1.114,4.106,4.106,0,0,0-.714-3.461C15.921,31.511,15.643,32.068,15.643,32.068Zm5.953,11.1a5.671,5.671,0,0,0-.6-2.626,1.109,1.109,0,0,0-.119.517,3.57,3.57,0,0,1-.6-1.472,5.543,5.543,0,0,1-.476,1.552,1.511,1.511,0,0,0,.516-.159C20.525,41.935,21.318,42.134,21.6,43.168ZM12.469,30.357c-.238-.4-.6-.955-.913-3.382a6.315,6.315,0,0,0,.952,4.1,1.944,1.944,0,0,0,.317-1.472C12.786,29.641,12.627,30.238,12.469,30.357Zm-1.508,1.91a5.2,5.2,0,0,1-.476-2.188,4.008,4.008,0,0,0,.4,2.745,1.042,1.042,0,0,0,.357-.836C11.238,32.147,10.961,32.267,10.961,32.267Zm-.675.756a4.6,4.6,0,0,1-.4-1.95,3.661,3.661,0,0,0,.278,2.427.993.993,0,0,0,.357-.716A1.307,1.307,0,0,1,10.286,33.023Zm1.429-1.591a7.49,7.49,0,0,1-.6-2.984c-.159,1.95.159,3.143.6,3.7a1.757,1.757,0,0,0,.357-1.313C12.032,30.834,11.873,31.272,11.715,31.431Zm9.564-13.09c-.079.04-.119.239.119.239a.249.249,0,0,0,.238-.2S21.4,18.262,21.279,18.342ZM14.016,27.97a5.8,5.8,0,0,1-1.27-2.865,5.768,5.768,0,0,0,1.429,3.74,3.436,3.436,0,0,0-.079-2.586A7.026,7.026,0,0,1,14.016,27.97Zm.873,6.246a.967.967,0,0,1-.476-.438,1.756,1.756,0,0,0,.794,1.194c.238-.875.4-1.552-.714-4.058C15.207,33.381,14.889,34.216,14.889,34.216Zm-1.667-4.894A7.264,7.264,0,0,1,12.111,26.1,6.324,6.324,0,0,0,13.3,30.158a2.315,2.315,0,0,0,.079-2.109A4.075,4.075,0,0,1,13.223,29.323Zm13.771,2.467a4.019,4.019,0,0,0,.992-2.626,7.378,7.378,0,0,1-1.071,1.353A4.931,4.931,0,0,1,26,29.681,3.384,3.384,0,0,0,26.993,31.789Zm9.921-3.819a7.026,7.026,0,0,1-.079-1.711,3.441,3.441,0,0,0-.079,2.586,6.227,6.227,0,0,0,1.429-3.74A6.03,6.03,0,0,1,36.914,27.97Zm1.9-1.87a7.264,7.264,0,0,1-1.111,3.223,4.281,4.281,0,0,1-.159-1.313,2.292,2.292,0,0,0,.119,2.109A6.367,6.367,0,0,0,38.819,26.1ZM29.89,41.139s0-.4-.119-.517a6.905,6.905,0,0,0-.6,2.626c.278-1.034,1.071-1.233,1.27-2.188a1.221,1.221,0,0,0,.476.2,10.8,10.8,0,0,1-.476-1.552A2.63,2.63,0,0,1,29.89,41.139Zm9.524-14.124C39.1,29.442,38.74,30,38.5,30.4a2.026,2.026,0,0,1-.357-.756,1.944,1.944,0,0,0,.317,1.472A6.4,6.4,0,0,0,39.414,27.015Zm.238,5.013a1.021,1.021,0,0,0,.4.836,4.3,4.3,0,0,0,.4-2.745,5.2,5.2,0,0,1-.476,2.188S39.692,32.147,39.652,32.028ZM40.8,33.5a3.661,3.661,0,0,0,.278-2.427,4.6,4.6,0,0,1-.4,1.95s-.2-.119-.238-.239A.866.866,0,0,0,40.8,33.5Zm-5.516-1.432s-.278-.557.437-2.705a4.106,4.106,0,0,0-.714,3.461,1.779,1.779,0,0,0,.833-1.114A1.031,1.031,0,0,1,35.287,32.068Zm.754,2.148s-.317-.836.437-3.262c-1.111,2.507-.992,3.183-.714,4.058a1.675,1.675,0,0,0,.794-1.194A1.848,1.848,0,0,1,36.041,34.216ZM20.088,31.869a6.186,6.186,0,0,0-.6-2.586A4.76,4.76,0,0,0,20.088,31.869Zm19.723-3.422c-.2,2.148-.357,2.586-.6,2.984a1.676,1.676,0,0,1-.317-.557,1.757,1.757,0,0,0,.357,1.313A6.131,6.131,0,0,0,39.811,28.447Zm-12.9-7.2c.238.239.992.4,1.429.836A1.018,1.018,0,0,0,26.914,21.246ZM28.858,22.6c-.119.557.833,1.432.833,1.472A1.439,1.439,0,0,0,28.858,22.6Zm1.349,4.416a3.3,3.3,0,0,1-.833,1.751,7,7,0,0,1-.833-.836,4.088,4.088,0,0,0,.833,2.029A3.057,3.057,0,0,0,30.208,27.015Zm-2.54-2.347c-.476.517-.04,1.552.238,2.507C28.144,26.7,28.461,25.145,27.668,24.668Zm.079-4.575a1.517,1.517,0,0,0-1.071-.756,3.14,3.14,0,0,1,.4.637,1.969,1.969,0,0,1-.635.119A1.34,1.34,0,0,0,27.747,20.092Zm2.818,12.771a8.936,8.936,0,0,0-.754,2.586C30.009,35.291,30.882,33.261,30.565,32.864ZM25.009,18.143a1.465,1.465,0,0,0,1.27.716A2.088,2.088,0,0,0,25.009,18.143Zm-1.468-.318c-.04-.04-.4-.04-.4.04-.04.08.2.159.278.2a.158.158,0,0,0,.159-.08C23.58,17.9,23.58,17.824,23.541,17.824Zm.159-.04a.7.7,0,0,1,.04.4.661.661,0,0,1-1.31,0,.751.751,0,0,1,.079-.318c-.119,0-.119.119-.278.279-.079.08-.2.08-.4.2a1.127,1.127,0,0,1,.556-.756,4.409,4.409,0,0,1,3.016.279,9.746,9.746,0,0,0-1.032-.08ZM28.065,23.2A1.29,1.29,0,0,0,26.874,21.8C26.834,22.32,27.747,22.638,28.065,23.2Zm-2.183-5.053c.238.239.952.517,1.349.915C27.191,18.421,26.636,18.1,25.882,18.143ZM21.636,29.72a10.619,10.619,0,0,1-.119,1.552,1.787,1.787,0,0,1-.754-.557,5.652,5.652,0,0,0,1.191,1.671A4.45,4.45,0,0,0,21.636,29.72Zm-1.984-1.552c-.079-.6.635-1.114.4-2.069A1.882,1.882,0,0,0,19.651,28.169ZM30.565,25.3a5.938,5.938,0,0,0,.675,2.109A2,2,0,0,0,30.565,25.3Zm-9.8,8.594a2.707,2.707,0,0,0,.357,1.273,5.137,5.137,0,0,0,1.071,1.353C21.675,35.728,21.279,34.3,20.763,33.9Zm.04-1.95c-.278,1.194.913,2.347.913,2.387A3.836,3.836,0,0,0,20.8,31.949Zm10.159-3.541c-.516.119-.317,2.148-.357,2.148C30.6,30.516,31.4,29.163,30.962,28.408ZM28.7,36.444a3.281,3.281,0,0,0,.794-2.984A7.136,7.136,0,0,0,28.7,36.444Zm-7.58-9.827a20.212,20.212,0,0,1,1.23-2.586A2.52,2.52,0,0,0,21.12,26.617ZM31.2,30.437c.357.477-.079,1.233-.4,1.751A8.209,8.209,0,0,1,31.2,30.437Z" transform="translate(38.526 -0.079)" fill="#fff"/>
  </g>
</svg>
