<svg xmlns="http://www.w3.org/2000/svg" width="126.978" height="129.919" viewBox="0 0 126.978 129.919">
  <g id="Logo" transform="translate(0.011)">
    <g id="Layer_2" data-name="Layer 2">
      <g id="Layer_1" data-name="Layer 1">
        <path id="Vector" d="M40.563,11.746a6.219,6.219,0,0,1,2.51-4.561,6.976,6.976,0,0,1,5.385-1.332,6.486,6.486,0,0,1,5.692,6.41c.029,1.649,0,3.868,0,5.654v.4H40.529v-1.6c0-1.722-.049-3.351.044-4.985ZM2.843,10.732a6.608,6.608,0,0,1,6.7-5.454h5.035V18.327h-.36c-1.8.024-3.5.049-5.215-.044a6.63,6.63,0,0,1-4.865-2.541,6.237,6.237,0,0,1-1.3-5.01ZM8.194,20.873a38.229,38.229,0,0,0,4.013.18h2.35V29.21h2.807V21.044H72.952V7.678H70.208V18.327H56.977V12.312A9.374,9.374,0,0,0,48.22,3.132a10.043,10.043,0,0,0-7.783,2.639V.122H39.216L39.133,0l-.126.122H37.727v2c-.029,3.137-.024,11.942,0,16.176v.029H17.452v-.049h-.078c0-8.463,0-13.517-.029-15.459V2.551H16.07V2.5H9.585a9.434,9.434,0,0,0-9.54,8.4A9.069,9.069,0,0,0,8.2,20.859" transform="translate(53.451)" fill="#fff"/>
        <path id="Vector-2" data-name="Vector" d="M8.756,16.761c.282,0,.555.029.832.029,4.972,0,8.966-3.317,9.5-7.883a43.7,43.7,0,0,0,.175-5.576V0H16.442l.024,3.137c0,1.722.049,3.346-.044,5a6.1,6.1,0,0,1-2.374,4.449A7,7,0,0,1,8.513,14.01a6.489,6.489,0,0,1-5.7-6.4V.424L0,.434V7.571a9.379,9.379,0,0,0,8.756,9.19Z" transform="translate(0 3.639)" fill="#fff"/>
        <path id="Vector-3" data-name="Vector" d="M28.118,18.049V.122H26.872L26.755,0l-.126.122H25.34v2c-.029,3.137,0,11.942,0,16.176v.029H17.556V.122h-1.24L16.2,0l-.1.122H14.8v2c-.029,3.137,0,11.942,0,16.176v.029H0v2.717H28.118Z" transform="translate(20.874)" fill="#fff"/>
        <path id="Vector-4" data-name="Vector" d="M2.817,2.839v-.1h13.66v.39c0,1.722.049,3.346-.044,5a6.107,6.107,0,0,1-2.374,4.444A6.986,6.986,0,0,1,8.523,14a6.5,6.5,0,0,1-5.7-6.4V2.839ZM0,2.473V7.561a9.369,9.369,0,0,0,8.756,9.19c.282,0,.559.034.832.034,4.972,0,8.966-3.317,9.5-7.883a43.936,43.936,0,0,0,.175-5.659V0H0Z" transform="translate(0.487 36.966)" fill="#fff"/>
        <path id="Vector-5" data-name="Vector" d="M57.8,25.083V21.668c0-5.366,0-16.517-.029-19.673V0H55.032V1.854c-.034,3.273-.029,14.571,0,20v.488H36.05a6.668,6.668,0,0,1-4.767-2.41,6.286,6.286,0,0,1-1.377-5.146A6.608,6.608,0,0,1,36.6,9.327h7.477V6.59H36.644a9.437,9.437,0,0,0-9.554,8.39,9.181,9.181,0,0,0,2.676,7.381H2.805c0-5.366,0-8.844-.029-10.361v-.268h-.72L.032,11.7v.268C-.006,15.507,0,28.654,0,34.966v3.415h2.8V25.073H37.753c1.1.034,2.213,0,3.3,0h2.077Z" transform="translate(63.811 58.205)" fill="#fff"/>
        <path id="Vector-6" data-name="Vector" d="M15.6,15.8H14.187c-1.79,0-3.488.044-5.2-.044A6.664,6.664,0,0,1,4.127,13.21a6.271,6.271,0,0,1-1.275-5,6.615,6.615,0,0,1,6.7-5.454h6.022V15.79Zm.861,2.722a.8.8,0,0,0,.209-.029H59.506V5.122H56.763V15.771H37.6V5.127H34.857V15.776H18.41V0H9.585A9.465,9.465,0,0,0,.046,8.41,9.074,9.074,0,0,0,8.2,18.371a38.142,38.142,0,0,0,4.018.176h4.266" transform="translate(-0.011 64.795)" fill="#fff"/>
        <path id="Vector-7" data-name="Vector" d="M68.243,16.942A6.093,6.093,0,0,1,70.617,12.5a6.981,6.981,0,0,1,5.536-1.434,6.491,6.491,0,0,1,5.7,6.4c.029,1.571,0,3.176,0,4.766v.122H68.185v-.415c-.024-1.722-.044-3.346.049-5ZM14.557,9.873V22.351H12.782c-1.211,0-2.5,0-3.8-.063a6.63,6.63,0,0,1-4.865-2.541,6.261,6.261,0,0,1-1.3-4.956,6.615,6.615,0,0,1,6.7-5.454h5.011V9.9ZM34.716,18.02A4.205,4.205,0,1,1,38.919,22a4.1,4.1,0,0,1-4.2-3.981ZM13.477,6.556H9.585a9.43,9.43,0,0,0-9.54,8.4A9.069,9.069,0,0,0,8.2,24.912a36.942,36.942,0,0,0,4.013.18h2.35v8.166h2.807v-8.19H96.458V21.654c0-5.366,0-16.517-.029-19.673V0H93.685V1.859c-.034,3.268-.029,14.566,0,20v.488H84.647V17.5a9.379,9.379,0,0,0-8.732-9.19c-5.317-.39-9.763,2.985-10.332,7.849a42.864,42.864,0,0,0-.17,5.576v.61H48.872a8.79,8.79,0,0,0,2.744-5.668,9.074,9.074,0,0,0-8.182-9.951,49,49,0,0,0-5.8-.166H34.191V9.3h3.245c1.8,0,3.488-.044,5.21.044a6.639,6.639,0,0,1,4.865,2.541,6.252,6.252,0,0,1,1.27,5,6.413,6.413,0,0,1-4.631,5.146,6.25,6.25,0,0,0,1.435-4,6.7,6.7,0,0,0-13.387,0,6.351,6.351,0,0,0,1.732,4.332H17.32V9.9L17.345,6.6Z" transform="translate(25.158 28.624)" fill="#fff"/>
        <path id="Vector-8" data-name="Vector" d="M2.77,2V0H.031V1.859C0,5.127,0,16.425,0,21.859v3.215H2.809V21.659c0-5.366,0-16.517-.029-19.673" transform="translate(123.599 28.624)" fill="#fff"/>
        <path id="Vector-9" data-name="Vector" d="M2.773,0H.029V1.859C0,5.132,0,16.429,0,21.859v3.215H2.807V21.659c0-5.366,0-16.517-.029-19.673Z" transform="translate(123.596 58.214)" fill="#fff"/>
        <path id="Vector-10" data-name="Vector" d="M1.887,3.766A1.9,1.9,0,0,0,3.77,1.883,1.949,1.949,0,0,0,1.883,0h0A1.89,1.89,0,0,0,.559.566,1.925,1.925,0,0,0,0,1.9,1.9,1.9,0,0,0,1.887,3.766Z" transform="translate(7.74 3.244)" fill="#fff"/>
        <path id="Vector-11" data-name="Vector" d="M1.854,3.8h.029A1.9,1.9,0,0,0,2.644.152,1.888,1.888,0,0,0,1.922,0,1.919,1.919,0,0,0,0,1.859,1.905,1.905,0,0,0,.53,3.2a1.866,1.866,0,0,0,1.309.6" transform="translate(7.74 8.746)" fill="#fff"/>
        <path id="Vector-12" data-name="Vector" d="M1.887,0A1.89,1.89,0,1,0,3.222.554,1.885,1.885,0,0,0,1.887,0Z" transform="translate(11.247 59.683)" fill="#fff"/>
        <path id="Vector-13" data-name="Vector" d="M1.937.024A1.914,1.914,0,0,0,.595.571,1.818,1.818,0,0,0,.546,3.215a1.943,1.943,0,0,0,1.318.6H1.9A1.948,1.948,0,0,0,3.786,1.951,1.92,1.92,0,0,0,1.932,0" transform="translate(5.73 59.659)" fill="#fff"/>
        <path id="Vector-14" data-name="Vector" d="M1.867,0A1.889,1.889,0,0,0,.558,3.229a1.831,1.831,0,0,0,1.313.556h0A1.89,1.89,0,0,0,3.19,3.215,1.924,1.924,0,0,0,3.769,1.9,1.949,1.949,0,0,0,1.872,0Z" transform="translate(37.095 84.879)" fill="#fff"/>
        <path id="Vector-15" data-name="Vector" d="M1.867,0A1.889,1.889,0,0,0,.558,3.229a1.831,1.831,0,0,0,1.313.556h0A1.89,1.89,0,0,0,3.19,3.215a1.881,1.881,0,0,0,.559-1.327A1.949,1.949,0,0,0,1.862,0" transform="translate(56.271 84.879)" fill="#fff"/>
        <path id="Vector-16" data-name="Vector" d="M1.9,3.8A1.948,1.948,0,0,0,3.786,1.951,1.92,1.92,0,0,0,1.932,0,1.972,1.972,0,0,0,.595.546,1.818,1.818,0,0,0,.546,3.19a1.943,1.943,0,0,0,1.318.6H1.9" transform="translate(31.58 84.879)" fill="#fff"/>
        <path id="Vector-17" data-name="Vector" d="M1.892,3.785a1.949,1.949,0,0,0,1.883-1.9A1.885,1.885,0,0,0,3.206.561,1.9,1.9,0,0,0,1.887,0h0a1.893,1.893,0,0,0,0,3.785" transform="translate(101.038 32.313)" fill="#fff"/>
        <path id="Vector-18" data-name="Vector" d="M3.186.566A1.885,1.885,0,0,0,1.868,0h0a1.9,1.9,0,0,0,0,3.79h0A1.879,1.879,0,0,0,3.186.566Z" transform="translate(123.109 22.258)" fill="#fff"/>
        <path id="Vector-19" data-name="Vector" d="M1.876,3.8a1.914,1.914,0,0,0,1.313-.561,1.89,1.89,0,0,0,.584-1.322A1.91,1.91,0,0,0,1.919,0,1.87,1.87,0,0,0,.586.542,1.893,1.893,0,0,0,1.846,3.8Z" transform="translate(95.563 32.292)" fill="#fff"/>
        <path id="Vector-20" data-name="Vector" d="M1.868,3.785A1.893,1.893,0,0,0,1.868,0,1.91,1.91,0,0,0,0,1.9,1.881,1.881,0,0,0,.559,3.229a1.831,1.831,0,0,0,1.313.556Z" transform="translate(11.019 31.581)" fill="#fff"/>
        <path id="Vector-21" data-name="Vector" d="M1.9,3.785A1.893,1.893,0,0,0,2.3.039,1.884,1.884,0,0,0,.595.546,1.818,1.818,0,0,0,.546,3.19a1.943,1.943,0,0,0,1.318.6Z" transform="translate(5.491 31.581)" fill="#fff"/>
        <path id="Vector-22" data-name="Vector" d="M5.079,4.8a2.2,2.2,0,0,1-1.562.517H1.571V1.349H3.517a2.156,2.156,0,0,1,1.547.537,1.92,1.92,0,0,1,.564,1.463,1.886,1.886,0,0,1-.55,1.434ZM6.455,1.1A3.351,3.351,0,0,0,5.293.31,4.765,4.765,0,0,0,3.454,0H0V10.959H1.566v-4.3h1.98a4.949,4.949,0,0,0,1.459-.21,3.3,3.3,0,0,0,1.168-.634,2.843,2.843,0,0,0,.769-1.039,3.521,3.521,0,0,0,.277-1.463,4.049,4.049,0,0,0-.17-1.151,2.68,2.68,0,0,0-.6-1.063" transform="translate(110.321 118.652)" fill="#fff"/>
        <path id="Vector-23" data-name="Vector" d="M6.918,5.825a3.778,3.778,0,0,0-1.036-.644A9.356,9.356,0,0,0,4.694,4.8c-.413-.1-.783-.2-1.1-.3a3.231,3.231,0,0,1-.812-.376,1.637,1.637,0,0,1-.486-.488,1.325,1.325,0,0,1-.17-.7,1.467,1.467,0,0,1,.112-.561,1.356,1.356,0,0,1,.36-.488,1.945,1.945,0,0,1,.623-.361,2.581,2.581,0,0,1,.9-.141,3.115,3.115,0,0,1,.924.127,2.915,2.915,0,0,1,.7.3,2.73,2.73,0,0,1,.486.366,3.713,3.713,0,0,1,.292.307l1.051-.976q-.131-.161-.379-.424A2.832,2.832,0,0,0,6.538.6a4.08,4.08,0,0,0-.973-.42A4.784,4.784,0,0,0,4.184,0,4.649,4.649,0,0,0,2.6.25,3.4,3.4,0,0,0,1.455.9a2.59,2.59,0,0,0-.686.976A2.841,2.841,0,0,0,.535,3.025,2.812,2.812,0,0,0,.769,4.2a2.771,2.771,0,0,0,.642.912,3.585,3.585,0,0,0,.973.654,5.923,5.923,0,0,0,1.275.41,6.017,6.017,0,0,1,1.98.732,1.514,1.514,0,0,1,.686,1.351,1.626,1.626,0,0,1-.6,1.332,2.617,2.617,0,0,1-1.688.488,3.358,3.358,0,0,1-.973-.132,3.531,3.531,0,0,1-.8-.346,3.79,3.79,0,0,1-.647-.488c-.19-.18-.36-.356-.516-.532L0,9.538a4.356,4.356,0,0,0,.628.663,5.029,5.029,0,0,0,.9.615,5.537,5.537,0,0,0,1.148.488,5.177,5.177,0,0,0,1.4.18,4.814,4.814,0,0,0,1.523-.239,3.767,3.767,0,0,0,1.216-.673,3.179,3.179,0,0,0,.812-1.024,2.885,2.885,0,0,0,.292-1.3,3.374,3.374,0,0,0-.268-1.42,2.887,2.887,0,0,0-.73-.976" transform="translate(118.698 118.434)" fill="#fff"/>
        <path id="Vector-24" data-name="Vector" d="M6.018,7.035H8.343V9.264a3.5,3.5,0,0,1-1.133.6,5.337,5.337,0,0,1-1.61.215,3.824,3.824,0,0,1-1.586-.322,3.736,3.736,0,0,1-1.255-.868,3.958,3.958,0,0,1-.827-1.351,4.993,4.993,0,0,1-.3-1.741,5.213,5.213,0,0,1,.272-1.683,4.218,4.218,0,0,1,.769-1.385,3.654,3.654,0,0,1,1.216-.932,3.722,3.722,0,0,1,1.62-.346,3.348,3.348,0,0,1,1.1.166,3.7,3.7,0,0,1,.861.41,3.407,3.407,0,0,1,.652.522,6.5,6.5,0,0,1,.486.585l1.109-.976a6.24,6.24,0,0,0-.6-.722,4.307,4.307,0,0,0-.876-.7,4.94,4.94,0,0,0-1.2-.527A5.449,5.449,0,0,0,5.487,0,5.372,5.372,0,0,0,3.255.454,5.152,5.152,0,0,0,1.532,1.683,5.549,5.549,0,0,0,.4,3.542,6.357,6.357,0,0,0,0,5.791,6.455,6.455,0,0,0,.4,8.059a5.111,5.111,0,0,0,2.86,3,5.794,5.794,0,0,0,2.3.439,7.947,7.947,0,0,0,1.459-.127A6.5,6.5,0,0,0,8.2,11.045a4.913,4.913,0,0,0,.934-.488,5.766,5.766,0,0,0,.71-.541V5.654H6.018Z" transform="translate(1.061 102.825)" fill="#fff"/>
        <path id="Vector-25" data-name="Vector" d="M3.24,6.561l1.785-4.8,1.766,4.8ZM5.876,0H4.271L0,10.942H1.654L2.783,7.888h4.48l1.129,3.054h1.751Z" transform="translate(13.85 103.118)" fill="#fff"/>
        <path id="Vector-26" data-name="Vector" d="M9.111,10.942V0H7.54V4.576H1.571V0H0V10.942H1.571V5.985H7.54v4.956Z" transform="translate(27.053 103.118)" fill="#fff"/>
        <path id="Vector-27" data-name="Vector" d="M10.843,10.942,13.772,0H12.132L10.041,8.81,7.72.327H6.2l-2.374,8.5L1.732,0H0L2.909,10.942H4.563L6.9,2.854l2.272,8.088Z" transform="translate(39.321 103.118)" fill="#fff"/>
        <path id="Vector-28" data-name="Vector" d="M5.02,1.756l1.766,4.8H3.235ZM7.258,7.888l1.129,3.054h1.751L5.872,0H4.266L0,10.942H1.649L2.778,7.888Z" transform="translate(54.713 103.122)" fill="#fff"/>
        <path id="Vector-29" data-name="Vector" d="M2.656,2.688a3.737,3.737,0,0,1,1.211-.932,3.664,3.664,0,0,1,1.61-.346,3.46,3.46,0,0,1,1.129.166,3.6,3.6,0,0,1,.871.41,3.252,3.252,0,0,1,.647.546c.175.2.331.4.462.585L9.7,2.166A4.944,4.944,0,0,0,8.241.747,5.175,5.175,0,0,0,5.482,0,5.45,5.45,0,0,0,3.25.449,5.264,5.264,0,0,0,1.523,1.688,5.769,5.769,0,0,0,.4,3.542a6.593,6.593,0,0,0,0,4.517,5.5,5.5,0,0,0,1.119,1.8,5.2,5.2,0,0,0,1.717,1.19,5.591,5.591,0,0,0,2.209.424A5.061,5.061,0,0,0,7,11.249a5.6,5.6,0,0,0,1.24-.566,5.319,5.319,0,0,0,.915-.727,4.159,4.159,0,0,0,.555-.673L8.615,8.367c-.112.117-.243.268-.4.449a3.306,3.306,0,0,1-.6.532,3.7,3.7,0,0,1-.9.454,3.785,3.785,0,0,1-1.27.19,3.65,3.65,0,0,1-1.566-.332,3.44,3.44,0,0,1-1.2-.9,4.159,4.159,0,0,1-.759-1.351,5.032,5.032,0,0,1-.272-1.663,5.243,5.243,0,0,1,.263-1.673,4.174,4.174,0,0,1,.759-1.38" transform="translate(1.061 118.41)" fill="#fff"/>
        <path id="Vector-30" data-name="Vector" d="M7.54,4.576H1.571V0H0V10.937H1.571V5.985H7.54v4.951H9.111V0H7.54Z" transform="translate(12.576 118.674)" fill="#fff"/>
        <path id="Vector-31" data-name="Vector" d="M3.24,6.561l1.78-4.81,1.766,4.81ZM4.271,0,0,10.937H1.654L2.783,7.888h4.48l1.129,3.049h1.751L5.872,0Z" transform="translate(23.093 118.674)" fill="#fff"/>
        <path id="Vector-32" data-name="Vector" d="M8.654,0,5.336,5.688,2.014,0H.511L0,10.937H1.474L1.849,2.6l3.026,5.1h.788L8.737,2.541l.36,8.4h1.537L10.128,0Z" transform="translate(34.525 118.674)" fill="#fff"/>
        <path id="Vector-33" data-name="Vector" d="M5.084,4.8a2.224,2.224,0,0,1-1.566.517H1.571V1.349H3.517a2.156,2.156,0,0,1,1.547.537,1.92,1.92,0,0,1,.564,1.463,1.881,1.881,0,0,1-.545,1.434ZM6.455,1.1A3.308,3.308,0,0,0,5.293.31,4.765,4.765,0,0,0,3.454,0H0V10.959H1.557v-4.3H3.551a4.925,4.925,0,0,0,1.459-.21,3.3,3.3,0,0,0,1.168-.634,2.926,2.926,0,0,0,.778-1.054A3.521,3.521,0,0,0,7.234,3.3a4.064,4.064,0,0,0-.175-1.151,2.68,2.68,0,0,0-.6-1.063" transform="translate(47.527 118.652)" fill="#fff"/>
        <path id="Vector-34" data-name="Vector" d="M0,0H1.571V10.942H0Z" transform="translate(56.79 118.674)" fill="#fff"/>
        <path id="Vector-35" data-name="Vector" d="M9.2,7.371a4.305,4.305,0,0,1-.793,1.371,3.82,3.82,0,0,1-1.245.932,3.747,3.747,0,0,1-1.625.346,3.693,3.693,0,0,1-1.62-.346,3.829,3.829,0,0,1-1.236-.932,4.217,4.217,0,0,1-.793-1.371,5.086,5.086,0,0,1,0-3.312,4.164,4.164,0,0,1,.793-1.371,3.683,3.683,0,0,1,1.236-.927,3.761,3.761,0,0,1,1.62-.337,3.815,3.815,0,0,1,1.625.337,3.674,3.674,0,0,1,1.245.927A4.252,4.252,0,0,1,9.2,4.059a5.086,5.086,0,0,1,0,3.312Zm.311-5.693A5.623,5.623,0,0,0,7.739.449a5.556,5.556,0,0,0-4.378,0A5.5,5.5,0,0,0,1.591,1.679,5.773,5.773,0,0,0,.423,3.5a6.162,6.162,0,0,0,0,4.488,5.569,5.569,0,0,0,2.919,3.059,5.3,5.3,0,0,0,2.194.454,5.338,5.338,0,0,0,2.2-.454A5.623,5.623,0,0,0,9.51,9.815a5.7,5.7,0,0,0,1.177-1.829,6.162,6.162,0,0,0,0-4.488A5.714,5.714,0,0,0,9.51,1.679" transform="translate(60.424 118.395)" fill="#fff"/>
        <path id="Vector-36" data-name="Vector" d="M7.54,8.546,1.586,0H0V10.937H1.537V2.376l5.969,8.561H9.077V0H7.54Z" transform="translate(73.587 118.674)" fill="#fff"/>
        <path id="Vector-37" data-name="Vector" d="M6.927,5.825a3.729,3.729,0,0,0-1.041-.644A9.288,9.288,0,0,0,4.7,4.8c-.418-.1-.783-.2-1.1-.3a3.153,3.153,0,0,1-.812-.376A1.583,1.583,0,0,1,2.3,3.63a1.325,1.325,0,0,1-.175-.7,1.467,1.467,0,0,1,.117-.561,1.3,1.3,0,0,1,.36-.488,1.872,1.872,0,0,1,.623-.361,2.572,2.572,0,0,1,.9-.141,3.091,3.091,0,0,1,.924.127,2.914,2.914,0,0,1,.705.3,2.73,2.73,0,0,1,.486.366c.126.127.229.229.292.307l1.046-.976c-.088-.107-.209-.249-.375-.424A2.919,2.919,0,0,0,6.548.6a4.163,4.163,0,0,0-.973-.42A4.808,4.808,0,0,0,4.193,0,4.649,4.649,0,0,0,2.607.25,3.49,3.49,0,0,0,1.459.9a2.707,2.707,0,0,0-.686.976A2.934,2.934,0,0,0,.545,3.025,2.745,2.745,0,0,0,1.42,5.108a3.628,3.628,0,0,0,.973.654,5.967,5.967,0,0,0,1.279.41,6.061,6.061,0,0,1,1.98.732,1.513,1.513,0,0,1,.686,1.351,1.631,1.631,0,0,1-.608,1.332,2.6,2.6,0,0,1-1.683.488,3.333,3.333,0,0,1-.973-.132,3.532,3.532,0,0,1-.8-.346,3.61,3.61,0,0,1-.647-.488c-.19-.18-.36-.356-.516-.532L0,9.591a4.126,4.126,0,0,0,.6.61,4.864,4.864,0,0,0,.9.615,5.605,5.605,0,0,0,1.143.488,5.216,5.216,0,0,0,1.4.18,4.76,4.76,0,0,0,1.518-.239,3.8,3.8,0,0,0,1.221-.673,3.1,3.1,0,0,0,.808-1.024,2.826,2.826,0,0,0,.3-1.3,3.374,3.374,0,0,0-.272-1.42,2.878,2.878,0,0,0-.725-.976" transform="translate(84.528 118.434)" fill="#fff"/>
        <path id="Vector-38" data-name="Vector" d="M7.54,4.576H1.571V0H0V10.937H1.571V5.985H7.54v4.951H9.111V0H7.54Z" transform="translate(94.671 118.674)" fill="#fff"/>
        <path id="Vector-39" data-name="Vector" d="M0,0H1.571V10.942H0Z" transform="translate(106.268 118.674)" fill="#fff"/>
      </g>
    </g>
  </g>
</svg>
