<svg xmlns="http://www.w3.org/2000/svg" viewBox="0 0 41.91 57.54"><defs><style>.cls-1{fill:none;stroke:#94645f;stroke-linecap:round;stroke-linejoin:round;stroke-width:2px;}</style></defs><g id="Layer_2" data-name="Layer 2"><g id="Layer_1-2" data-name="Layer 1"><path class="cls-1" d="M21.47,11a29.87,29.87,0,0,1,2,3.76C30.19,30,22.94,47.83,7.27,54.57a31.81,31.81,0,0,1-6.27,2"/><ellipse class="cls-1" cx="17.46" cy="6.39" rx="5.52" ry="5.38" transform="translate(-0.99 4.08) rotate(-12.98)"/><ellipse class="cls-1" cx="13.6" cy="24.25" rx="5.34" ry="5.21" transform="translate(-5.1 3.67) rotate(-12.98)"/><path class="cls-1" d="M38.11,17.92a5.15,5.15,0,0,1-.93,7.33,5.4,5.4,0,0,1-7.49-.82,5.15,5.15,0,0,1,.93-7.33A5.4,5.4,0,0,1,38.11,17.92Z"/><path class="cls-1" d="M17.55,28.11a17.91,17.91,0,0,1,4.89,12.1"/><path class="cls-1" d="M24.3,36.77a32.25,32.25,0,0,0,9.08-10.12"/><path class="cls-1" d="M1.92,29.5c-.64,2.24,1,6.93,4.2,11.56,3,4.33,6.49,7.31,8.76,7.72.64-2.24-1-6.93-4.2-11.56C7.67,32.89,4.19,29.91,1.92,29.5Z"/><path class="cls-1" d="M40.91,40.94c-1,2.12-5.29,4.73-10.79,6.31-5.15,1.48-9.77,1.62-11.79.53,1-2.12,5.3-4.73,10.79-6.31C34.27,40,38.9,39.85,40.91,40.94Z"/></g></g></svg>