<svg xmlns="http://www.w3.org/2000/svg" width="75.306" height="71.309" viewBox="0 0 75.306 71.309">
  <g id="Group_5608" data-name="Group 5608" transform="translate(-395.71 -3270.804)">
    <g id="Group_5388" data-name="Group 5388" transform="translate(446.298 3274.742)">
      <g id="Group_5387" data-name="Group 5387">
        <path id="Path_1288" data-name="Path 1288" d="M360.28,40.76a1.353,1.353,0,0,0-1.912,0L344.346,54.781a1.352,1.352,0,0,0,1.912,1.912L360.28,42.672A1.353,1.353,0,0,0,360.28,40.76Z" transform="translate(-343.95 -40.364)" fill="#b89f7c"/>
        <path id="Path_1288_-_Outline" data-name="Path 1288 - Outline" d="M359.323,39.864h0a1.852,1.852,0,0,1,1.31,3.162L346.612,57.047a1.852,1.852,0,1,1-2.62-2.62l14.021-14.021A1.84,1.84,0,0,1,359.323,39.864ZM345.3,56.589a.847.847,0,0,0,.6-.25l14.021-14.021a.852.852,0,0,0-1.205-1.205L344.7,55.134a.852.852,0,0,0,.6,1.455Z" transform="translate(-343.95 -40.364)" fill="#b89f7c"/>
      </g>
    </g>
    <g id="Group_5390" data-name="Group 5390" transform="translate(450.112 3278.495)">
      <g id="Group_5389" data-name="Group 5389">
        <path id="Path_1289" data-name="Path 1289" d="M386.206,66.275a1.353,1.353,0,0,0-1.913,0L370.272,80.3a1.352,1.352,0,0,0,1.912,1.912l14.021-14.021A1.352,1.352,0,0,0,386.206,66.275Z" transform="translate(-369.876 -65.879)" fill="#b89f7c"/>
        <path id="Path_1289_-_Outline" data-name="Path 1289 - Outline" d="M385.25,65.379a1.852,1.852,0,0,1,1.31,3.162L372.538,82.562a1.852,1.852,0,1,1-2.62-2.62L383.94,65.922A1.841,1.841,0,0,1,385.25,65.379ZM371.229,82.1a.847.847,0,0,0,.6-.25l14.021-14.021a.852.852,0,0,0-1.206-1.205L370.626,80.65a.852.852,0,0,0,.6,1.455Z" transform="translate(-369.876 -65.879)" fill="#b89f7c"/>
      </g>
    </g>
    <g id="Group_5392" data-name="Group 5392" transform="translate(399.703 3282.854)">
      <path id="Path_1290" data-name="Path 1290" d="M80.663,115.229,98.068,97.823a1.352,1.352,0,0,0-1.912-1.913L78.75,113.316a7.181,7.181,0,0,1-8.159,1.4,1.352,1.352,0,0,0-1.594.323L63.084,121.7l-.007.007-.006.008-25.561,28.8-.019.022c-.084.1-.164.186-.244.267a4.328,4.328,0,1,1-6.119-6.122c.079-.079.165-.158.265-.243l.022-.019,25.13-22.292a1.352,1.352,0,0,0-1.8-2.023l-25.12,22.283c-.153.13-.289.256-.417.384a7.033,7.033,0,0,0,9.945,9.946c.13-.13.256-.266.385-.418L59.02,130.355,78.5,152.3c.129.151.255.288.384.417a7.033,7.033,0,0,0,9.947-9.945c-.129-.13-.266-.256-.417-.385L66,122.494l4.385-4.941A9.893,9.893,0,0,0,80.663,115.229Zm5.963,29.191.022.019c.1.084.186.164.267.244a4.328,4.328,0,1,1-6.122,6.12c-.08-.08-.16-.167-.244-.266l-.019-.022-19.7-22.2,3.374-3.8Z" transform="translate(-27.152 -95.515)" fill="#b89f7c"/>
    </g>
    <g id="Group_5394" data-name="Group 5394" transform="translate(395.71 3270.804)">
      <g id="Group_5393" data-name="Group 5393">
        <path id="Path_1291" data-name="Path 1291" d="M62.86,13.982a1.353,1.353,0,0,0-1.912,0L43.542,31.388a9.892,9.892,0,0,0-2.325,10.281l-5.356,4.754-5.148-4.569a13.6,13.6,0,0,0-2.533-15.821A30.788,30.788,0,0,0,14.5,17.721c-4.831-1.216-8.972-.4-11.663,2.286S-.665,26.84.551,31.67A30.787,30.787,0,0,0,8.863,45.35a13.6,13.6,0,0,0,15.821,2.533l5.1,5.743a1.353,1.353,0,0,0,1.909.114L43.731,43.053a1.353,1.353,0,0,0,.323-1.594,7.18,7.18,0,0,1,1.4-8.158L62.86,15.895A1.352,1.352,0,0,0,62.86,13.982ZM30.906,50.82l-4.923-5.546a1.352,1.352,0,0,0-1.721-.253,10.91,10.91,0,0,1-13.488-1.583,28.075,28.075,0,0,1-7.6-12.428c-.974-3.871-.415-7.1,1.576-9.09s5.219-2.551,9.09-1.576a28.072,28.072,0,0,1,12.428,7.6,10.91,10.91,0,0,1,1.583,13.488,1.352,1.352,0,0,0,.253,1.721l5.72,5.077Z" transform="translate(0 -13.586)" fill="#b89f7c"/>
      </g>
    </g>
  </g>
</svg>
