<?xml version="1.0" encoding="utf-8"?>
<!-- Generator: Adobe Illustrator 26.0.1, SVG Export Plug-In . SVG Version: 6.00 Build 0)  -->
<svg version="1.1" id="Layer_1" xmlns="http://www.w3.org/2000/svg" xmlns:xlink="http://www.w3.org/1999/xlink" x="0px" y="0px"
	 viewBox="0 0 16 16" style="enable-background:new 0 0 16 16;" xml:space="preserve">
<style type="text/css">
	.st0{fill:#FFFFFF;}
</style>
<path class="st0" d="M13.9,3.5c-0.1,0.2-0.3,0.3-0.4,0.5c-0.2,0.2-0.2,0.4-0.2,0.6c0,0.1,0,0.3,0,0.4c0,3.5-1.6,6-3.9,7.3
	c-1.8,1-4,1.3-6.1,0.7c0.8-0.2,1.6-0.6,2.4-1.1c0.1-0.1,0.2-0.2,0.2-0.3c0.1-0.3,0-0.7-0.3-0.9c-1.8-0.8-2.8-2-3.2-3.1
	C2.1,6.9,2.1,6.2,2.1,5.5c0-0.5,0.1-1,0.2-1.5c0.3,0.2,0.5,0.5,0.8,0.7C4.5,5.8,6.2,6.4,8,6.3c0.4,0,0.7-0.3,0.7-0.7V5
	c0-0.1,0-0.2,0-0.4c0.1-0.5,0.3-1,0.8-1.4c0.5-0.4,1.1-0.6,1.7-0.6s1.2,0.3,1.6,0.8c0.2,0.2,0.4,0.3,0.7,0.2
	C13.6,3.6,13.7,3.6,13.9,3.5L13.9,3.5z M14.9,1.4c-0.5,0.3-1,0.6-1.5,0.8c-0.6-0.6-1.4-0.9-2.2-0.9c-0.9-0.1-1.9,0.2-2.7,0.9
	C7.9,2.8,7.5,3.6,7.4,4.5c0,0.2,0,0.4,0,0.5C6.1,4.9,4.9,4.4,3.9,3.7c-0.5-0.4-1-0.9-1.4-1.4C2.3,2,1.9,1.9,1.6,2.1
	C1.5,2.2,1.4,2.3,1.4,2.4c0,0-0.1,0.2-0.2,0.5C1.1,3.1,1,3.4,1,3.7C0.9,4.2,0.8,4.8,0.7,5.5c0,0.8,0.1,1.7,0.4,2.7
	c0.5,1.2,1.3,2.3,2.8,3.2c-1,0.5-2.2,0.7-3.2,0.6C0.3,12,0,12.3,0,12.6c0,0.3,0.1,0.5,0.3,0.6c3.3,1.8,7,1.8,9.8,0.2
	c2.7-1.5,4.5-4.5,4.5-8.4c0-0.1,0-0.2,0-0.3C15.3,3.9,15.8,3,16,2.1c0.1-0.4-0.1-0.7-0.5-0.8C15.3,1.3,15.1,1.3,14.9,1.4L14.9,1.4z"
	/>
</svg>
