<svg xmlns="http://www.w3.org/2000/svg" width="70.458" height="68.914" viewBox="0 0 70.458 68.914">
  <g id="Icon_feather-calendar" data-name="Icon feather-calendar" transform="translate(-1.5 -0.5)">
    <path id="Path_1283" data-name="Path 1283" d="M10.5,2.5H62.962a9.492,9.492,0,0,1,6.291,2.3,7.655,7.655,0,0,1,2.7,5.787v46.14a7.655,7.655,0,0,1-2.7,5.787,9.492,9.492,0,0,1-6.291,2.3H10.5a9.492,9.492,0,0,1-6.291-2.3,7.655,7.655,0,0,1-2.7-5.787V10.591A7.655,7.655,0,0,1,4.2,4.8,9.492,9.492,0,0,1,10.5,2.5ZM62.962,61.823c3.306,0,6-2.284,6-5.091V10.591c0-2.807-2.689-5.091-6-5.091H10.5c-3.306,0-6,2.284-6,5.091v46.14c0,2.807,2.689,5.091,6,5.091Z" transform="translate(0 4.591)" fill="#b89f7c"/>
    <path id="Path_1284" data-name="Path 1284" d="M16,16.683a1.5,1.5,0,0,1-1.5-1.5V2a1.5,1.5,0,0,1,3,0V15.183A1.5,1.5,0,0,1,16,16.683Z" transform="translate(35.719)" fill="#b89f7c"/>
    <path id="Path_1285" data-name="Path 1285" d="M8,16.683a1.5,1.5,0,0,1-1.5-1.5V2a1.5,1.5,0,0,1,3,0V15.183A1.5,1.5,0,0,1,8,16.683Z" transform="translate(13.738)" fill="#b89f7c"/>
    <path id="Path_1286" data-name="Path 1286" d="M70.458,11.5H3a1.5,1.5,0,0,1,0-3H70.458a1.5,1.5,0,0,1,0,3Z" transform="translate(0 18.366)" fill="#b89f7c"/>
  </g>
</svg>
