<svg xmlns="http://www.w3.org/2000/svg" width="16" height="16" viewBox="0 0 16 16">
  <path id="Icon_zocial-instagram" data-name="Icon zocial-instagram" d="M1.45,16.029a1.9,1.9,0,0,1-.875-.5A1.76,1.76,0,0,1,.09,14.7C.034,14.476.03,14.266.03,8.092.027,1.154.018,1.536.2,1.145a1.866,1.866,0,0,1,.91-.9c.4-.178.009-.169,7-.159l6.44.006.2.069a1.9,1.9,0,0,1,1.2,1.2l.069.2L16.025,8c.009,7.153.025,6.618-.2,7.081a1.857,1.857,0,0,1-.791.791c-.456.225.063.209-7.016.206C2.6,16.073,1.609,16.067,1.45,16.029Zm12.462-1.9c.256-.181.263-.2.272-1.391.009-1.16,0-1.219-.188-1.4-.172-.169-.253-.178-1.385-.175l-1.032,0-.141.075a.769.769,0,0,0-.231.219l-.094.138,0,1.035c0,.566.009,1.082.025,1.141a.584.584,0,0,0,.319.394l.156.078,1.085-.009,1.082-.009ZM8.653,11.09a3.1,3.1,0,0,0,2.395-2.407,3.819,3.819,0,0,0,.034-1.016,3.149,3.149,0,0,0-1.6-2.3,3.355,3.355,0,0,0-.825-.306c-.059-.006-.184-.025-.278-.041A3.088,3.088,0,0,0,5.586,6.213a3.059,3.059,0,0,0,.059,3.8,3.117,3.117,0,0,0,2.063,1.122A3.263,3.263,0,0,0,8.653,11.09ZM3.21,9.061a4.961,4.961,0,0,1,.413-3.173A4.6,4.6,0,0,1,4.557,4.6,4.876,4.876,0,0,1,8.812,3.215,4.953,4.953,0,0,1,12.8,6.841a4.855,4.855,0,0,1,.128,1.751,3.442,3.442,0,0,1-.128.675c-.009.016-.006.028.009.031.119.013,1.335.009,1.357-.006s.025-1.4.022-3.489L14.174,2.33,14.08,2.2a.781.781,0,0,0-.234-.206l-.141-.072L8,1.926l-5.706.006-.128.084a.822.822,0,0,0-.2.2l-.075.119L1.878,5.794c0,1.9,0,3.467.006,3.486a3.364,3.364,0,0,0,.7.031h.685Z" transform="translate(-0.029 -0.078)" fill="#fff"/>
</svg>
