<svg xmlns="http://www.w3.org/2000/svg" width="79.007" height="80.571" viewBox="0 0 79.007 80.571">
  <g id="Logo" transform="translate(0.007)">
    <g id="Logo-2" data-name="Logo">
      <g id="Layer_2" data-name="Layer 2" transform="translate(-0.007)">
        <g id="Layer_1" data-name="Layer 1">
          <path id="Vector" d="M25.156,7.285a3.857,3.857,0,0,1,1.557-2.829,4.326,4.326,0,0,1,3.34-.826,4.022,4.022,0,0,1,3.53,3.975c.018,1.023,0,2.4,0,3.506v.248H25.135V10.37c0-1.068-.03-2.078.027-3.092ZM1.763,6.655A4.1,4.1,0,0,1,5.92,3.273H9.043v8.092H8.82c-1.116.015-2.169.03-3.234-.027A4.112,4.112,0,0,1,2.569,9.762a3.868,3.868,0,0,1-.806-3.107Zm3.319,6.289a23.708,23.708,0,0,0,2.489.112H9.028v5.058h1.741V13.051H45.242V4.762h-1.7v6.6H35.335V7.636A5.813,5.813,0,0,0,29.9,1.942a6.228,6.228,0,0,0-4.827,1.637V.076H24.32L24.269,0l-.078.076H23.4v1.24c-.018,1.945-.015,7.406,0,10.032v.018H10.823v-.03h-.048c0-5.249,0-8.383-.018-9.587V1.582h-.79v-.03H5.945A5.85,5.85,0,0,0,.028,6.761a5.625,5.625,0,0,0,5.059,6.174" transform="translate(33.155)" fill="#46494c"/>
          <path id="Vector-2" data-name="Vector" d="M5.43,10.395c.175,0,.344.018.516.018a5.7,5.7,0,0,0,5.892-4.889,27.1,27.1,0,0,0,.109-3.458V0H10.2l.015,1.945c0,1.068.03,2.075-.027,3.1A3.785,3.785,0,0,1,8.713,7.8a4.341,4.341,0,0,1-3.433.886A4.024,4.024,0,0,1,1.744,4.719V.263L0,.269V4.7a5.816,5.816,0,0,0,5.43,5.7Z" transform="translate(0.007 2.257)" fill="#46494c"/>
          <path id="Vector-3" data-name="Vector" d="M17.438,11.193V.076h-.772L16.593,0l-.078.076h-.8v1.24c-.018,1.945,0,7.406,0,10.032v.018H10.888V.076h-.769L10.046,0,9.983.076H9.177v1.24c-.018,1.945,0,7.406,0,10.032v.018H0v1.685H17.438Z" transform="translate(12.953)" fill="#46494c"/>
          <path id="Vector-4" data-name="Vector" d="M1.747,1.761V1.7h8.471v.242c0,1.068.03,2.075-.027,3.1A3.788,3.788,0,0,1,8.719,7.8a4.332,4.332,0,0,1-3.433.889A4.031,4.031,0,0,1,1.75,4.716V1.761ZM0,1.534V4.689a5.81,5.81,0,0,0,5.43,5.7c.175,0,.347.021.516.021a5.7,5.7,0,0,0,5.892-4.889,27.247,27.247,0,0,0,.109-3.509V0H0Z" transform="translate(0.309 22.925)" fill="#46494c"/>
          <path id="Vector-5" data-name="Vector" d="M35.849,15.556V13.438c0-3.328,0-10.243-.018-12.2V0h-1.7V1.15c-.021,2.03-.018,9.036,0,12.4v.3H22.357A4.135,4.135,0,0,1,19.4,12.361a3.9,3.9,0,0,1-.854-3.192A4.1,4.1,0,0,1,22.7,5.784h4.637v-1.7h-4.61A5.852,5.852,0,0,0,16.8,9.29a5.693,5.693,0,0,0,1.659,4.577H1.74c0-3.328,0-5.485-.018-6.426V7.276H1.275L.02,7.254v.166C0,9.617,0,17.77,0,21.685V23.8H1.74V15.55H23.413c.685.021,1.373,0,2.045,0h1.288Z" transform="translate(39.581 36.097)" fill="#46494c"/>
          <path id="Vector-6" data-name="Vector" d="M9.676,9.8H8.8c-1.11,0-2.163.027-3.222-.027A4.133,4.133,0,0,1,2.56,8.192a3.889,3.889,0,0,1-.79-3.1A4.1,4.1,0,0,1,5.926,1.709H9.661V9.793Zm.534,1.688a.5.5,0,0,0,.13-.018H36.9V3.176H35.2v6.6H23.319V3.18h-1.7v6.6h-10.2V0H5.945A5.87,5.87,0,0,0,.029,5.215a5.628,5.628,0,0,0,5.059,6.178A23.654,23.654,0,0,0,7.58,11.5h2.646" transform="translate(0 40.184)" fill="#46494c"/>
          <path id="Vector-7" data-name="Vector" d="M42.322,10.507a3.778,3.778,0,0,1,1.472-2.756,4.329,4.329,0,0,1,3.433-.889A4.026,4.026,0,0,1,50.76,10.83c.018.974,0,1.969,0,2.956v.076H42.286V13.6c-.015-1.068-.027-2.075.03-3.1ZM9.028,6.123v7.739h-1.1c-.751,0-1.551,0-2.356-.039a4.112,4.112,0,0,1-3.017-1.576,3.883,3.883,0,0,1-.809-3.074A4.1,4.1,0,0,1,5.9,5.79H9.01v.351Zm12.5,5.052a2.608,2.608,0,1,1,2.607,2.469,2.543,2.543,0,0,1-2.607-2.469ZM8.358,4.066H5.945A5.848,5.848,0,0,0,.028,9.275,5.625,5.625,0,0,0,5.088,15.45a22.911,22.911,0,0,0,2.489.112H9.034v5.064h1.741V15.547H59.82V13.429c0-3.328,0-10.243-.018-12.2V0H58.1V1.153c-.021,2.027-.018,9.033,0,12.4v.3H52.495v-3a5.817,5.817,0,0,0-5.415-5.7,5.749,5.749,0,0,0-6.408,4.868,26.583,26.583,0,0,0-.106,3.458v.378H30.309a5.451,5.451,0,0,0,1.7-3.515,5.628,5.628,0,0,0-5.074-6.171,30.387,30.387,0,0,0-3.6-.1H21.2v1.7h2.012c1.113,0,2.163-.027,3.231.027a4.118,4.118,0,0,1,3.017,1.576,3.877,3.877,0,0,1,.787,3.1,3.977,3.977,0,0,1-2.872,3.192,3.876,3.876,0,0,0,.89-2.481,4.154,4.154,0,0,0-8.3,0,3.939,3.939,0,0,0,1.074,2.686h-10.3V6.141l.015-2.051Z" transform="translate(15.609 17.752)" fill="#46494c"/>
          <path id="Vector-8" data-name="Vector" d="M1.718,1.237V0H.02V1.153C0,3.18,0,10.186,0,13.556V15.55H1.742V13.432c0-3.328,0-10.243-.018-12.2" transform="translate(76.659 17.752)" fill="#46494c"/>
          <path id="Vector-9" data-name="Vector" d="M1.72,0H.018V1.153C0,3.183,0,10.189,0,13.556V15.55H1.741V13.432c0-3.328,0-10.243-.018-12.2Z" transform="translate(76.657 36.103)" fill="#46494c"/>
          <path id="Vector-10" data-name="Vector" d="M1.171,2.335A1.178,1.178,0,0,0,2.338,1.168,1.208,1.208,0,0,0,1.168,0h0A1.172,1.172,0,0,0,.347.351,1.194,1.194,0,0,0,0,1.177,1.181,1.181,0,0,0,1.171,2.335Z" transform="translate(4.807 2.012)" fill="#46494c"/>
          <path id="Vector-11" data-name="Vector" d="M1.149,2.354h.018A1.177,1.177,0,0,0,1.64.094,1.171,1.171,0,0,0,1.192,0,1.19,1.19,0,0,0,0,1.153a1.182,1.182,0,0,0,.329.829,1.157,1.157,0,0,0,.812.372" transform="translate(4.807 5.424)" fill="#46494c"/>
          <path id="Vector-12" data-name="Vector" d="M1.171,0A1.172,1.172,0,1,0,2,.344,1.169,1.169,0,0,0,1.171,0Z" transform="translate(6.982 37.014)" fill="#46494c"/>
          <path id="Vector-13" data-name="Vector" d="M1.2.015A1.187,1.187,0,0,0,.369.354a1.127,1.127,0,0,0-.03,1.64,1.205,1.205,0,0,0,.818.369h.021A1.208,1.208,0,0,0,2.348,1.21,1.19,1.19,0,0,0,1.2,0" transform="translate(3.561 36.999)" fill="#46494c"/>
          <path id="Vector-14" data-name="Vector" d="M1.158,0A1.172,1.172,0,0,0,.346,2a1.136,1.136,0,0,0,.815.345h0a1.172,1.172,0,0,0,.818-.354,1.193,1.193,0,0,0,.359-.814A1.208,1.208,0,0,0,1.161,0Z" transform="translate(23.012 52.639)" fill="#46494c"/>
          <path id="Vector-15" data-name="Vector" d="M1.158,0A1.172,1.172,0,0,0,.346,2a1.136,1.136,0,0,0,.815.345h0a1.172,1.172,0,0,0,.818-.354,1.166,1.166,0,0,0,.347-.823A1.208,1.208,0,0,0,1.155,0" transform="translate(34.904 52.639)" fill="#46494c"/>
          <path id="Vector-16" data-name="Vector" d="M1.177,2.357A1.208,1.208,0,0,0,2.348,1.21,1.19,1.19,0,0,0,1.2,0a1.223,1.223,0,0,0-.83.339,1.127,1.127,0,0,0-.03,1.64,1.205,1.205,0,0,0,.818.369h.021" transform="translate(19.592 52.639)" fill="#46494c"/>
          <path id="Vector-17" data-name="Vector" d="M1.174,2.348a1.208,1.208,0,0,0,1.168-1.18,1.169,1.169,0,0,0-.353-.82A1.175,1.175,0,0,0,1.171,0h0a1.174,1.174,0,0,0,0,2.348" transform="translate(62.668 20.039)" fill="#46494c"/>
          <path id="Vector-18" data-name="Vector" d="M1.976.351A1.169,1.169,0,0,0,1.158,0h0a1.175,1.175,0,0,0,0,2.351h0a1.165,1.165,0,0,0,.815-2Z" transform="translate(76.355 13.804)" fill="#46494c"/>
          <path id="Vector-19" data-name="Vector" d="M1.163,2.36a1.187,1.187,0,0,0,.815-.348,1.172,1.172,0,0,0,.362-.82A1.184,1.184,0,0,0,1.19,0,1.16,1.16,0,0,0,.364.336,1.174,1.174,0,0,0,1.145,2.36Z" transform="translate(59.272 20.027)" fill="#46494c"/>
          <path id="Vector-20" data-name="Vector" d="M1.158,2.348A1.174,1.174,0,0,0,1.158,0,1.184,1.184,0,0,0,0,1.177,1.166,1.166,0,0,0,.347,2a1.136,1.136,0,0,0,.815.345Z" transform="translate(6.841 19.585)" fill="#46494c"/>
          <path id="Vector-21" data-name="Vector" d="M1.177,2.347A1.174,1.174,0,0,0,1.429.024,1.168,1.168,0,0,0,.369.339a1.127,1.127,0,0,0-.03,1.64,1.205,1.205,0,0,0,.818.369Z" transform="translate(3.413 19.585)" fill="#46494c"/>
          <path id="Vector-22" data-name="Vector" d="M3.15,2.978a1.364,1.364,0,0,1-.968.321H.974V.836H2.181a1.337,1.337,0,0,1,.959.333,1.191,1.191,0,0,1,.35.908,1.17,1.17,0,0,1-.341.889ZM4,.682a2.078,2.078,0,0,0-.721-.49A2.955,2.955,0,0,0,2.142,0H0V6.8H.971V4.131H2.2A3.069,3.069,0,0,0,3.1,4a2.044,2.044,0,0,0,.724-.393,1.763,1.763,0,0,0,.477-.644,2.183,2.183,0,0,0,.172-.908,2.511,2.511,0,0,0-.106-.714A1.662,1.662,0,0,0,4,.682" transform="translate(68.424 73.584)" fill="#46494c"/>
          <path id="Vector-23" data-name="Vector" d="M4.29,3.613a2.343,2.343,0,0,0-.643-.4,5.8,5.8,0,0,0-.736-.239c-.256-.061-.486-.121-.685-.188a2,2,0,0,1-.5-.233,1.015,1.015,0,0,1-.3-.3.822.822,0,0,1-.106-.433.91.91,0,0,1,.069-.348.841.841,0,0,1,.223-.3A1.206,1.206,0,0,1,1.994.944,1.6,1.6,0,0,1,2.552.857a1.932,1.932,0,0,1,.573.079,1.808,1.808,0,0,1,.434.188,1.693,1.693,0,0,1,.3.227,2.3,2.3,0,0,1,.181.191L4.694.935q-.081-.1-.235-.263a1.756,1.756,0,0,0-.4-.3,2.531,2.531,0,0,0-.6-.26A2.967,2.967,0,0,0,2.595,0a2.883,2.883,0,0,0-.984.154A2.11,2.11,0,0,0,.9.56a1.606,1.606,0,0,0-.425.605,1.762,1.762,0,0,0-.145.711A1.744,1.744,0,0,0,.477,2.6a1.718,1.718,0,0,0,.4.566,2.223,2.223,0,0,0,.6.405,3.673,3.673,0,0,0,.79.254A3.731,3.731,0,0,1,3.5,4.281a.939.939,0,0,1,.425.838,1.009,1.009,0,0,1-.374.826,1.623,1.623,0,0,1-1.047.3,2.082,2.082,0,0,1-.6-.082,2.19,2.19,0,0,1-.5-.215,2.351,2.351,0,0,1-.4-.3c-.118-.112-.223-.221-.32-.33L0,5.915a2.7,2.7,0,0,0,.389.411,3.119,3.119,0,0,0,.558.381,3.434,3.434,0,0,0,.712.3,3.211,3.211,0,0,0,.866.112,2.985,2.985,0,0,0,.944-.148,2.336,2.336,0,0,0,.754-.417,1.972,1.972,0,0,0,.5-.635,1.789,1.789,0,0,0,.181-.8,2.092,2.092,0,0,0-.166-.88,1.791,1.791,0,0,0-.453-.605" transform="translate(73.619 73.449)" fill="#46494c"/>
          <path id="Vector-24" data-name="Vector" d="M3.732,4.363H5.174V5.745a2.17,2.17,0,0,1-.7.369,3.31,3.31,0,0,1-1,.133,2.372,2.372,0,0,1-.984-.2,2.317,2.317,0,0,1-.778-.538A2.455,2.455,0,0,1,1.2,4.671a3.1,3.1,0,0,1-.184-1.08,3.233,3.233,0,0,1,.169-1.044,2.616,2.616,0,0,1,.477-.859,2.266,2.266,0,0,1,.754-.578,2.309,2.309,0,0,1,1-.215A2.076,2.076,0,0,1,4.1,1a2.3,2.3,0,0,1,.534.254,2.113,2.113,0,0,1,.4.324,4.033,4.033,0,0,1,.3.363l.688-.605A3.87,3.87,0,0,0,5.657.887,2.671,2.671,0,0,0,5.114.454,3.064,3.064,0,0,0,4.368.127,3.379,3.379,0,0,0,3.4,0,3.332,3.332,0,0,0,2.018.282,3.2,3.2,0,0,0,.95,1.044,3.441,3.441,0,0,0,.247,2.2,3.943,3.943,0,0,0,0,3.591,4,4,0,0,0,.247,5,3.17,3.17,0,0,0,2.021,6.859a3.593,3.593,0,0,0,1.427.272,4.928,4.928,0,0,0,.905-.079,4.034,4.034,0,0,0,.733-.2,3.047,3.047,0,0,0,.579-.3,3.576,3.576,0,0,0,.44-.336v-2.7H3.732Z" transform="translate(0.665 63.768)" fill="#46494c"/>
          <path id="Vector-25" data-name="Vector" d="M2.009,4.069,3.116,1.092l1.1,2.98ZM3.644,0h-1L0,6.786H1.026l.7-1.894H4.5l.7,1.894H6.29Z" transform="translate(8.596 63.95)" fill="#46494c"/>
          <path id="Vector-26" data-name="Vector" d="M5.651,6.786V0H4.676V2.838H.974V0H0V6.786H.974V3.712h3.7V6.786Z" transform="translate(16.784 63.95)" fill="#46494c"/>
          <path id="Vector-27" data-name="Vector" d="M6.725,6.786,8.541,0H7.524l-1.3,5.464L4.788.2H3.844L2.371,5.473,1.074,0H0L1.8,6.786H2.83L4.281,1.77,5.69,6.786Z" transform="translate(24.393 63.95)" fill="#46494c"/>
          <path id="Vector-28" data-name="Vector" d="M3.113,1.089l1.1,2.98h-2.2ZM4.5,4.892l.7,1.894H6.287L3.641,0h-1L0,6.786H1.023l.7-1.894Z" transform="translate(33.938 63.953)" fill="#46494c"/>
          <path id="Vector-29" data-name="Vector" d="M1.647,1.667A2.318,2.318,0,0,1,2.4,1.089a2.272,2.272,0,0,1,1-.215,2.146,2.146,0,0,1,.7.1,2.23,2.23,0,0,1,.54.254,2.017,2.017,0,0,1,.4.339c.109.127.205.248.287.363l.691-.59a3.066,3.066,0,0,0-.905-.88A3.209,3.209,0,0,0,3.4,0,3.38,3.38,0,0,0,2.015.279a3.264,3.264,0,0,0-1.071.768,3.578,3.578,0,0,0-.7,1.15,4.089,4.089,0,0,0,0,2.8A3.414,3.414,0,0,0,.941,6.117a3.222,3.222,0,0,0,1.065.738,3.467,3.467,0,0,0,1.37.263,3.139,3.139,0,0,0,.965-.142,3.471,3.471,0,0,0,.769-.351,3.3,3.3,0,0,0,.567-.451,2.579,2.579,0,0,0,.344-.417l-.679-.569c-.069.073-.151.166-.25.278a2.05,2.05,0,0,1-.374.33,2.293,2.293,0,0,1-.558.281,2.347,2.347,0,0,1-.787.118A2.263,2.263,0,0,1,2.4,5.99a2.133,2.133,0,0,1-.742-.56,2.579,2.579,0,0,1-.471-.838A3.121,3.121,0,0,1,1.02,3.561a3.251,3.251,0,0,1,.163-1.038,2.589,2.589,0,0,1,.471-.856" transform="translate(0.665 73.434)" fill="#46494c"/>
          <path id="Vector-30" data-name="Vector" d="M4.676,2.838H.974V0H0V6.783H.974V3.712h3.7V6.783h.974V0H4.676Z" transform="translate(7.806 73.598)" fill="#46494c"/>
          <path id="Vector-31" data-name="Vector" d="M2.009,4.069l1.1-2.983,1.1,2.983ZM2.649,0,0,6.783H1.026l.7-1.891H4.5l.7,1.891H6.29L3.641,0Z" transform="translate(14.328 73.598)" fill="#46494c"/>
          <path id="Vector-32" data-name="Vector" d="M5.367,0,3.31,3.527,1.249,0H.317L0,6.783H.914l.232-5.167L3.023,4.78h.489l1.907-3.2.223,5.206h.953L6.281,0Z" transform="translate(21.418 73.598)" fill="#46494c"/>
          <path id="Vector-33" data-name="Vector" d="M3.153,2.978a1.379,1.379,0,0,1-.971.321H.974V.836H2.181a1.337,1.337,0,0,1,.959.333,1.191,1.191,0,0,1,.35.908,1.166,1.166,0,0,1-.338.889ZM4,.682a2.051,2.051,0,0,0-.721-.49A2.955,2.955,0,0,0,2.142,0H0V6.8H.965V4.131H2.2A3.054,3.054,0,0,0,3.107,4a2.044,2.044,0,0,0,.724-.393,1.815,1.815,0,0,0,.483-.653,2.183,2.183,0,0,0,.172-.908,2.52,2.52,0,0,0-.109-.714A1.662,1.662,0,0,0,4,.673" transform="translate(29.482 73.584)" fill="#46494c"/>
          <path id="Vector-34" data-name="Vector" d="M0,0H.974V6.786H0Z" transform="translate(35.226 73.598)" fill="#46494c"/>
          <path id="Vector-35" data-name="Vector" d="M5.708,4.572a2.67,2.67,0,0,1-.492.85A2.369,2.369,0,0,1,4.444,6a2.324,2.324,0,0,1-1.008.215,2.29,2.29,0,0,1-1-.215,2.375,2.375,0,0,1-.766-.578,2.615,2.615,0,0,1-.492-.85,3.154,3.154,0,0,1,0-2.054,2.582,2.582,0,0,1,.492-.85,2.284,2.284,0,0,1,.766-.575,2.333,2.333,0,0,1,1-.209,2.366,2.366,0,0,1,1.008.209,2.278,2.278,0,0,1,.772.575,2.637,2.637,0,0,1,.492.85,3.154,3.154,0,0,1,0,2.054ZM5.9,1.041A3.487,3.487,0,0,0,4.8.279a3.446,3.446,0,0,0-2.715,0,3.409,3.409,0,0,0-1.1.762A3.58,3.58,0,0,0,.262,2.169a3.822,3.822,0,0,0,0,2.783,3.454,3.454,0,0,0,1.81,1.9,3.29,3.29,0,0,0,1.361.281A3.311,3.311,0,0,0,4.8,6.85a3.487,3.487,0,0,0,1.1-.762,3.538,3.538,0,0,0,.73-1.134,3.822,3.822,0,0,0,0-2.783A3.544,3.544,0,0,0,5.9,1.041" transform="translate(37.48 73.425)" fill="#46494c"/>
          <path id="Vector-36" data-name="Vector" d="M4.676,5.3.983,0H0V6.783H.953V1.473l3.7,5.309h.974V0H4.676Z" transform="translate(45.644 73.598)" fill="#46494c"/>
          <path id="Vector-37" data-name="Vector" d="M4.3,3.613a2.313,2.313,0,0,0-.646-.4,5.76,5.76,0,0,0-.733-.239c-.259-.061-.486-.121-.685-.188a1.955,1.955,0,0,1-.5-.233.982.982,0,0,1-.3-.3.822.822,0,0,1-.109-.433.91.91,0,0,1,.072-.348.808.808,0,0,1,.223-.3A1.161,1.161,0,0,1,2,.944,1.6,1.6,0,0,1,2.555.857a1.917,1.917,0,0,1,.573.079,1.807,1.807,0,0,1,.437.188,1.693,1.693,0,0,1,.3.227c.078.079.142.142.181.191L4.7.935C4.643.869,4.568.781,4.465.672a1.811,1.811,0,0,0-.4-.3,2.582,2.582,0,0,0-.6-.26A2.982,2.982,0,0,0,2.6,0a2.883,2.883,0,0,0-.984.154A2.165,2.165,0,0,0,.905.56a1.679,1.679,0,0,0-.425.605,1.819,1.819,0,0,0-.142.711A1.7,1.7,0,0,0,.881,3.168a2.25,2.25,0,0,0,.6.405,3.7,3.7,0,0,0,.793.254,3.759,3.759,0,0,1,1.228.454.939.939,0,0,1,.425.838,1.012,1.012,0,0,1-.377.826,1.614,1.614,0,0,1-1.044.3,2.067,2.067,0,0,1-.6-.082,2.19,2.19,0,0,1-.5-.215,2.239,2.239,0,0,1-.4-.3c-.118-.112-.223-.221-.32-.33L0,5.948a2.559,2.559,0,0,0,.374.378,3.016,3.016,0,0,0,.558.381,3.476,3.476,0,0,0,.709.3,3.235,3.235,0,0,0,.869.112,2.952,2.952,0,0,0,.941-.148,2.354,2.354,0,0,0,.757-.417,1.923,1.923,0,0,0,.5-.635,1.753,1.753,0,0,0,.184-.8,2.092,2.092,0,0,0-.169-.88,1.785,1.785,0,0,0-.45-.605" transform="translate(52.429 73.449)" fill="#46494c"/>
          <path id="Vector-38" data-name="Vector" d="M4.676,2.838H.974V0H0V6.783H.974V3.712h3.7V6.783h.974V0H4.676Z" transform="translate(58.719 73.598)" fill="#46494c"/>
          <path id="Vector-39" data-name="Vector" d="M0,0H.974V6.786H0Z" transform="translate(65.911 73.598)" fill="#46494c"/>
        </g>
      </g>
    </g>
  </g>
</svg>
