<svg xmlns="http://www.w3.org/2000/svg" width="38.95" height="53.349" viewBox="0 0 38.95 53.349">
  <path id="Path_1324" data-name="Path 1324" d="M655.3,411.538a21.352,21.352,0,0,0-3.409,9.833c-.848,8.416,3.906,14.879,8.583,21.4,3.464,4.824,5.439,11.5,1.145,16.462a10.545,10.545,0,0,1-2.631,2.222m-.574-.064c-4.1.039-8.057-1.868-11.457-5.514a30.415,30.415,0,0,1-7.335-16.336,31.889,31.889,0,0,1,2.354-18.045c2.576-5.428,6.614-8.88,11.368-9.719a12.831,12.831,0,0,1,2.091-.194c4.094-.039,8.056,1.868,11.455,5.515a30.418,30.418,0,0,1,7.337,16.335,31.907,31.907,0,0,1-2.355,18.046c-2.577,5.428-6.613,8.88-11.368,9.719A12.718,12.718,0,0,1,658.412,461.388Z" transform="translate(-637.448 -409.81)" fill="none" stroke="#fff" stroke-miterlimit="10" stroke-width="3.54"/>
</svg>
