<svg xmlns="http://www.w3.org/2000/svg" width="83.562" height="68.914" viewBox="0 0 83.562 68.914">
  <g id="Icon_feather-users" data-name="Icon feather-users" transform="translate(0.5 -1.5)">
    <path id="Path_1279" data-name="Path 1279" d="M59.59,38.471a1.5,1.5,0,0,1-1.5-1.5V29.648A13.148,13.148,0,0,0,44.943,16.5h-29.3A13.148,13.148,0,0,0,2.5,29.648v7.324a1.5,1.5,0,0,1-3,0V29.648A16.148,16.148,0,0,1,15.648,13.5h29.3A16.148,16.148,0,0,1,61.09,29.648v7.324A1.5,1.5,0,0,1,59.59,38.471Z" transform="translate(0 31.943)" fill="#b89f7c"/>
    <path id="Path_1280" data-name="Path 1280" d="M19.648,1.5A16.148,16.148,0,0,1,31.066,29.066,16.148,16.148,0,1,1,8.23,6.23,16.042,16.042,0,0,1,19.648,1.5Zm0,29.3a13.148,13.148,0,1,0-9.3-3.851A13.061,13.061,0,0,0,19.648,30.8Z" transform="translate(10.648 0)" fill="#b89f7c"/>
    <path id="Path_1281" data-name="Path 1281" d="M30.986,38.125a1.5,1.5,0,0,1-1.5-1.5V29.3a13.147,13.147,0,0,0-9.861-12.719,1.5,1.5,0,0,1,.75-2.9A16.148,16.148,0,0,1,32.486,29.3v7.325A1.5,1.5,0,0,1,30.986,38.125Z" transform="translate(50.576 32.289)" fill="#b89f7c"/>
    <path id="Path_1282" data-name="Path 1282" d="M16,33.01a1.5,1.5,0,0,1-.371-2.953,13.148,13.148,0,0,0,0-25.473,1.5,1.5,0,1,1,.744-2.906,16.148,16.148,0,0,1,0,31.286A1.5,1.5,0,0,1,16,33.01Z" transform="translate(39.928 0.346)" fill="#b89f7c"/>
  </g>
</svg>
