<svg xmlns="http://www.w3.org/2000/svg" width="16" height="16" viewBox="0 0 16 16">
  <path id="Icon_awesome-facebook-square" data-name="Icon awesome-facebook-square" d="M14.286,1.5H1.714A1.714,1.714,0,0,0,0,3.214V15.786A1.714,1.714,0,0,0,1.714,17.5h4.9V12.06H4.366V9.5h2.25V7.549A3.125,3.125,0,0,1,9.961,4.1a13.631,13.631,0,0,1,1.983.173V6.454H10.828A1.28,1.28,0,0,0,9.384,7.838V9.5H11.84l-.393,2.56H9.384V17.5h4.9A1.714,1.714,0,0,0,16,15.786V3.214A1.714,1.714,0,0,0,14.286,1.5Z" transform="translate(0 -1.5)" fill="#fff"/>
</svg>
