<svg xmlns="http://www.w3.org/2000/svg" viewBox="0 0 79.14 44.13"><defs><style>.cls-1{fill:none;stroke:#94645f;stroke-linecap:round;stroke-linejoin:round;stroke-width:2.2px;}</style></defs><g id="Layer_2" data-name="Layer 2"><g id="Layer_1-2" data-name="Layer 1"><path class="cls-1" d="M24.58,1.23c-13.87-2.15-31,22.63-20,35,2.68,3,5,2.85,6.89-.68,5.38-9.68,3.32-19.48,14.89-28.17,5.23-3.91,8.28-4.57-1.81-6.13ZM11.5,35.53C10,37.7,5.23,39.82,14,40.08c13.45.41,27.74-21.4,21.66-32.22-1.9-3.37-4.32-4-7.05-2.06M37.3,32.31c5.08,13.09,35.08,15.5,40.27-.19,1.27-3.82,0-5.79-4-5.63C62.47,26.67,55,33.36,41.7,27.68c-6-2.57-8.09-4.88-4.4,4.63Zm36.25-5.82c2.64.26,6.84,3.28,2.7-4.41-6.37-11.85-32.4-13.32-38.73-2.65-2,3.33-1.28,5.72,1.74,7.14"/></g></g></svg>